<svg width="35" height="35" viewBox="0 0 35 35" fill="none" xmlns="http://www.w3.org/2000/svg">
<g clip-path="url(#clip0_788_358)">
<path d="M17.5 0C7.85019 0 0 7.85019 0 17.5C0 27.1498 7.85019 35 17.5 35C27.1498 35 35 27.1498 35 17.5C35 7.85019 27.1498 0 17.5 0ZM21.4477 23.7606C22.0179 24.3308 22.0179 25.2525 21.4477 25.8227C21.1633 26.1071 20.79 26.25 20.4166 26.25C20.0433 26.25 19.6699 26.1071 19.3856 25.8227L12.0939 18.5311C11.5238 17.9609 11.5238 17.0392 12.0939 16.469L19.3856 9.17731C19.9558 8.60713 20.8775 8.60713 21.4477 9.17731C22.0179 9.7475 22.0179 10.6692 21.4477 11.2394L15.1871 17.5L21.4477 23.7606Z" fill="white"/>
</g>
<defs>
<clipPath id="clip0_788_358">
<rect width="35" height="35" fill="white"/>
</clipPath>
</defs>
</svg>
