<svg width="21" height="21" viewBox="0 0 21 21" fill="none" xmlns="http://www.w3.org/2000/svg">
<path d="M19.3856 9.67186C19.1418 9.67186 18.944 9.47405 18.944 9.23033C18.944 6.63596 17.9338 4.19611 16.0989 2.36204C15.9267 2.18984 15.9267 1.90992 16.0989 1.73773C16.2711 1.56553 16.551 1.56553 16.7232 1.73773C18.725 3.7387 19.8271 6.3993 19.8271 9.23033C19.8271 9.47405 19.6293 9.67186 19.3856 9.67186Z" fill="white" stroke="white" stroke-width="0.5"/>
<path d="M0.841423 9.67186C0.597704 9.67186 0.399902 9.47405 0.399902 9.23033C0.399902 6.3993 1.50194 3.7387 3.50379 1.73773C3.67599 1.56553 3.95591 1.56553 4.1281 1.73773C4.3003 1.90992 4.3003 2.18984 4.1281 2.36204C2.29314 4.19611 1.28294 6.63596 1.28294 9.23033C1.28294 9.47405 1.08514 9.67186 0.841423 9.67186Z" fill="white" stroke="white" stroke-width="0.5"/>
<path d="M11.4378 4.09111C11.1941 4.09111 10.9963 3.89331 10.9963 3.64959V2.16608C10.9963 1.67952 10.5998 1.28304 10.1133 1.28304C9.6267 1.28304 9.23021 1.67952 9.23021 2.16608V3.64959C9.23021 3.89331 9.03241 4.09111 8.78869 4.09111C8.54497 4.09111 8.34717 3.89419 8.34717 3.64959V2.16608C8.34717 1.19208 9.13926 0.399994 10.1133 0.399994C11.0872 0.399994 11.8793 1.19208 11.8793 2.16608V3.64959C11.8793 3.89419 11.6815 4.09111 11.4378 4.09111Z" fill="white" stroke="white" stroke-width="0.2"/>
<path d="M10.1136 20.3929C8.40932 20.3929 7.02295 19.0066 7.02295 17.3023C7.02295 17.0586 7.22075 16.8608 7.46447 16.8608C7.70819 16.8608 7.90599 17.0586 7.90599 17.3023C7.90599 18.5191 8.89676 19.5099 10.1136 19.5099C11.3304 19.5099 12.3212 18.5191 12.3212 17.3023C12.3212 17.0586 12.519 16.8608 12.7627 16.8608C13.0064 16.8608 13.2042 17.0586 13.2042 17.3023C13.2042 19.0066 11.8179 20.3929 10.1136 20.3929Z" fill="white" stroke="white" stroke-width="0.7"/>
<path d="M10.0001 2.8C6.9117 2.8 4.4001 5.2219 4.4001 8.2V10.9342C4.4001 13.0474 3.44063 15.0409 1.76716 16.4053C1.65983 16.4935 1.6001 16.6186 1.6001 16.75C1.6001 16.9984 1.80916 17.2 2.06676 17.2H17.9334C18.191 17.2 18.4001 16.9984 18.4001 16.75C18.4001 16.6186 18.3404 16.4935 18.2368 16.408C16.5605 15.0409 15.6001 13.0465 15.6001 10.9342V8.2C15.6001 5.2219 13.0885 2.8 10.0001 2.8Z" fill="white"/>
</svg>
