<svg width="42" height="42" viewBox="0 0 42 42" fill="none" xmlns="http://www.w3.org/2000/svg">
<rect width="42" height="42" rx="21" fill="#C30017"/>
<g clip-path="url(#clip0_229_17)">
<path d="M18.6244 30.0004C18.6244 27.3802 18.6257 24.7598 18.6282 22.1393C18.6282 21.9837 18.5905 21.9273 18.4222 21.9297C17.6816 21.9391 16.9405 21.9334 16.1994 21.9334H16V18.7564H16.1975C16.9443 18.7564 17.6915 18.7517 18.4382 18.7596C18.5957 18.7596 18.6414 18.7126 18.6381 18.5595C18.6207 17.7977 18.591 17.036 18.6056 16.2747C18.6211 15.4872 18.7503 14.7142 19.0822 13.9881C19.6036 12.8463 20.5257 12.2495 21.7406 12.0728C22.6834 11.9356 23.6291 12.022 24.5719 12.0986C25.0009 12.1334 25 12.1456 25 12.5793V14.9688H24.7916C24.2683 14.9688 23.7451 14.966 23.2213 14.9721C23.0688 14.9733 22.9168 14.9903 22.7678 15.0229C22.1884 15.1526 21.8645 15.5168 21.8306 16.1192C21.8037 16.5976 21.8202 17.0788 21.8165 17.5581C21.8165 17.8922 21.8202 18.2263 21.8018 18.5595C21.7934 18.7155 21.8301 18.761 21.9904 18.7596C22.8314 18.7521 23.6725 18.7564 24.5135 18.7564H24.7181C24.5851 19.8212 24.455 20.8639 24.3216 21.9334H24.133C23.4155 21.9334 22.698 21.9363 21.981 21.9334C21.849 21.9334 21.7924 21.9621 21.7924 22.1068C21.7968 24.7271 21.7982 27.3473 21.7967 29.9675C21.7967 29.9793 21.7967 29.991 21.8 30.0028L18.6244 30.0004Z" fill="white"/>
</g>
<defs>
<clipPath id="clip0_229_17">
<rect width="9" height="18" fill="white" transform="translate(16 12)"/>
</clipPath>
</defs>
</svg>
