<svg width="32" height="32" viewBox="0 0 32 32" fill="none" xmlns="http://www.w3.org/2000/svg">
<rect width="31.7215" height="31.7215" rx="15.8608" fill="#C30017"/>
<path d="M13.1009 9.04901C12.3561 9.08413 11.8475 9.20301 11.4028 9.37766C10.9427 9.55703 10.5526 9.79766 10.1645 10.1871C9.77647 10.5766 9.53742 10.9669 9.35938 11.4279C9.18707 11.8734 9.07028 12.3825 9.03738 13.1277C9.00448 13.8729 8.99719 14.1125 9.00086 16.0135C9.00448 17.9143 9.01288 18.1526 9.04899 18.8994C9.08457 19.644 9.20299 20.1525 9.3777 20.5973C9.55737 21.0575 9.7977 21.4474 10.1874 21.8356C10.577 22.2238 10.967 22.4623 11.429 22.6406C11.8742 22.8127 12.3834 22.93 13.1285 22.9626C13.8736 22.9952 14.1134 23.0028 16.0138 22.9992C17.9142 22.9955 18.1535 22.9871 18.9 22.9517C19.6467 22.9163 20.1524 22.797 20.5974 22.6231C21.0576 22.4431 21.4478 22.2031 21.8357 21.8134C22.2236 21.4236 22.4625 21.033 22.6404 20.5718C22.8129 20.1266 22.9301 19.6175 22.9624 18.8729C22.9951 18.1257 23.0028 17.8872 22.9992 15.9866C22.9955 14.0859 22.9869 13.8476 22.9515 13.1011C22.9161 12.3546 22.7975 11.8477 22.6229 11.4026C22.443 10.9424 22.2029 10.5528 21.8135 10.1643C21.424 9.77584 21.033 9.53714 20.5721 9.35963C20.1265 9.18726 19.6177 9.06983 18.8726 9.03763C18.1275 9.00543 17.8877 8.99709 15.9866 9.00083C14.0855 9.00444 13.8475 9.01261 13.1009 9.04901ZM13.1827 21.7033C12.5002 21.6736 12.1296 21.5602 11.8826 21.4653C11.5556 21.3393 11.3226 21.187 11.0765 20.9432C10.8303 20.6995 10.6792 20.4657 10.5515 20.1394C10.4556 19.8924 10.3401 19.5222 10.3082 18.8397C10.2735 18.1021 10.2662 17.8806 10.2621 16.0117C10.258 14.1429 10.2652 13.9216 10.2975 13.1837C10.3267 12.5018 10.4408 12.1308 10.5355 11.8839C10.6615 11.5565 10.8133 11.3239 11.0576 11.078C11.3019 10.832 11.535 10.6805 11.8616 10.5528C12.1084 10.4565 12.4785 10.342 13.1607 10.3095C13.8989 10.2745 14.1201 10.2675 15.9887 10.2634C17.8573 10.2594 18.0791 10.2664 18.8176 10.2989C19.4995 10.3285 19.8707 10.4415 20.1173 10.5369C20.4444 10.6629 20.6773 10.8142 20.9232 11.059C21.1692 11.3036 21.3208 11.5359 21.4485 11.8632C21.5449 12.1092 21.6595 12.4792 21.6917 13.1619C21.7268 13.9001 21.7348 14.1215 21.7381 15.9899C21.7415 17.8583 21.7349 18.0802 21.7025 18.8179C21.6728 19.5004 21.5596 19.8711 21.4645 20.1184C21.3385 20.4453 21.1867 20.6784 20.9422 20.9242C20.6978 21.1701 20.465 21.3215 20.1382 21.4492C19.8918 21.5454 19.5212 21.6602 18.8396 21.6927C18.1013 21.7274 17.8801 21.7347 16.0108 21.7387C14.1415 21.7428 13.9209 21.7352 13.1827 21.7033ZM18.8893 12.2587C18.8896 12.4249 18.9391 12.5872 19.0317 12.7252C19.1242 12.8632 19.2556 12.9706 19.4092 13.034C19.5628 13.0973 19.7318 13.1136 19.8947 13.0809C20.0576 13.0482 20.2071 12.9679 20.3244 12.8502C20.4416 12.7325 20.5214 12.5826 20.5535 12.4196C20.5856 12.2566 20.5686 12.0877 20.5047 11.9343C20.4408 11.781 20.3329 11.65 20.1946 11.558C20.0562 11.4659 19.8937 11.417 19.7275 11.4173C19.5048 11.4178 19.2914 11.5067 19.1342 11.6645C18.977 11.8223 18.8889 12.036 18.8893 12.2587ZM12.4058 16.007C12.4097 17.9922 14.022 19.5978 16.0067 19.5941C17.9916 19.5903 19.5983 17.9782 19.5946 15.993C19.5908 14.0078 17.9782 12.4017 15.9931 12.4056C14.008 12.4095 12.4021 14.022 12.4058 16.007ZM13.6667 16.0045C13.6658 15.543 13.8017 15.0916 14.0574 14.7074C14.313 14.3232 14.6768 14.0234 15.1028 13.8459C15.5288 13.6685 15.9979 13.6214 16.4507 13.7105C16.9035 13.7996 17.3197 14.021 17.6467 14.3467C17.9736 14.6724 18.1967 15.0877 18.2876 15.5401C18.3786 15.9926 18.3333 16.4618 18.1575 16.8885C17.9818 17.3152 17.6834 17.6802 17.3002 17.9374C16.917 18.1945 16.4662 18.3323 16.0047 18.3332C15.6983 18.3338 15.3947 18.2741 15.1114 18.1574C14.828 18.0407 14.5704 17.8694 14.3533 17.6531C14.1362 17.4369 13.9638 17.18 13.846 16.8971C13.7282 16.6142 13.6673 16.3109 13.6667 16.0045Z" fill="white"/>
</svg>
