<svg width="115" height="115" viewBox="0 0 115 115" fill="none" xmlns="http://www.w3.org/2000/svg">
<g filter="url(#filter0_ii_788_738)">
<rect x="5" y="5" width="105" height="105" rx="52.5" fill="url(#paint0_linear_788_738)"/>
<rect x="5" y="5" width="105" height="105" rx="52.5" fill="white" fill-opacity="0.9"/>
</g>
<rect x="2.5" y="2.5" width="110" height="110" rx="55" stroke="white" stroke-width="5"/>
<path d="M58.557 34.1533V72.197C58.3856 71.3612 57.5711 71.0806 56.7353 70.7533C47.7417 67.2287 38.7616 63.669 29.7661 60.1503C29.0179 59.858 28.7217 59.4898 28.7354 58.6617C28.7886 55.5768 28.7886 52.4926 28.7354 49.409C28.7217 48.5381 28.9789 48.0763 29.7894 47.7061C38.9467 43.5054 48.1041 39.2619 57.2614 35.0417C57.8108 34.7924 58.3485 34.5585 58.557 34.1533Z" fill="#2B5EBD"/>
<path d="M98.8033 62.1162C96.6952 62.1162 94.5851 62.1376 92.475 62.1162C91.7191 62.1045 91.4346 62.3987 91.6645 63.106C91.9178 63.8853 91.5983 64.0801 90.8715 64.0801C84.2822 64.0684 77.6935 64.0684 71.1054 64.0801C70.3085 64.0801 70.0494 63.7859 70.1429 63.0475C70.1838 62.7319 70.1974 62.4143 70.2325 61.9915C69.8097 61.9662 69.4317 61.9291 69.0538 61.9272C66.9437 61.9272 64.8336 61.9272 62.7255 61.9272C61.5565 61.9272 61.3382 61.6973 61.6149 60.5341C62.3046 57.6252 63.9822 55.5346 66.819 54.4494C67.1424 54.3247 67.4619 54.1883 67.988 53.974C66.0981 52.8829 64.9719 51.4586 65.0947 49.37C65.1315 48.7685 65.2922 48.181 65.5668 47.6446C65.8414 47.1081 66.2239 46.6342 66.6904 46.2526C68.4848 44.6939 71.3859 44.8888 72.9057 46.6657C74.8677 48.9745 74.3533 51.4197 71.31 53.9701C72.3114 54.4533 73.2778 54.9306 74.2539 55.3865C74.3779 55.4149 74.5081 55.3954 74.6183 55.332C75.912 54.6929 77.2018 54.0461 78.6339 53.331C76.3056 52.1016 74.856 50.2234 74.8755 47.5795C74.8668 46.7458 75.0439 45.9206 75.3941 45.164C75.7443 44.4074 76.2586 43.7383 76.8998 43.2054C79.7133 40.8673 83.4268 41.2064 85.6285 43.9535C88.0152 46.9306 87.1872 50.2721 83.2788 53.3758C84.6426 54.05 85.9305 54.6949 87.2261 55.3242C87.3406 55.3809 87.4724 55.3914 87.5944 55.3534C88.4439 54.9793 89.2836 54.5877 90.2695 54.1357C88.4536 53.0251 87.3294 51.6204 87.4814 49.4908C87.5577 48.344 88.0844 47.2738 88.9465 46.5137C89.3855 46.1141 89.9004 45.8069 90.4605 45.6104C91.0206 45.4138 91.6145 45.3319 92.2069 45.3695C92.7993 45.4072 93.3781 45.5636 93.9088 45.8294C94.4395 46.0952 94.9114 46.4651 95.2963 46.917C97.2661 49.181 96.7458 51.6106 93.6557 54.1727C93.948 54.3091 94.1818 54.4377 94.4351 54.5273C97.3914 55.595 99.2099 57.6616 99.8905 60.727C100.154 61.9136 99.9957 62.1142 98.8033 62.1162Z" fill="#2B5EBD"/>
<path d="M31.7916 79.8424C29.5335 79.8424 27.4312 79.8638 25.3309 79.8112C25.101 79.8112 24.6879 79.3631 24.686 79.1196C24.647 74.1278 24.647 69.1368 24.686 64.1464C24.686 63.9165 25.1088 63.5307 25.3698 63.4956C26.0713 63.4041 26.7921 63.4625 27.513 63.4625C28.947 63.4625 28.912 63.4625 29.1691 64.9257C29.9485 69.407 30.7727 73.8882 31.5734 78.3694C31.6475 78.802 31.702 79.2481 31.7916 79.8424Z" fill="#2B5EBD"/>
<path d="M25.4628 58.5078C25.4784 59.1878 25.229 59.408 24.5569 59.4099C21.9811 59.4197 19.6314 58.7592 17.5642 57.1927C15.1404 55.3573 15.1482 52.4932 17.5778 50.654C19.6782 49.068 22.0591 48.4289 24.6718 48.4523C25.2563 48.4523 25.4745 48.6842 25.4667 49.2628C25.4453 50.8215 25.4667 52.3802 25.4667 53.9389C25.4512 55.4586 25.4278 56.9842 25.4628 58.5078Z" fill="#2B5EBD"/>
<defs>
<filter id="filter0_ii_788_738" x="0" y="-6" width="115" height="127" filterUnits="userSpaceOnUse" color-interpolation-filters="sRGB">
<feFlood flood-opacity="0" result="BackgroundImageFix"/>
<feBlend mode="normal" in="SourceGraphic" in2="BackgroundImageFix" result="shape"/>
<feColorMatrix in="SourceAlpha" type="matrix" values="0 0 0 0 0 0 0 0 0 0 0 0 0 0 0 0 0 0 127 0" result="hardAlpha"/>
<feOffset dy="6"/>
<feGaussianBlur stdDeviation="4.91111"/>
<feComposite in2="hardAlpha" operator="arithmetic" k2="-1" k3="1"/>
<feColorMatrix type="matrix" values="0 0 0 0 0 0 0 0 0 0 0 0 0 0 0 0 0 0 0.6 0"/>
<feBlend mode="normal" in2="shape" result="effect1_innerShadow_788_738"/>
<feColorMatrix in="SourceAlpha" type="matrix" values="0 0 0 0 0 0 0 0 0 0 0 0 0 0 0 0 0 0 127 0" result="hardAlpha"/>
<feOffset dy="-6"/>
<feGaussianBlur stdDeviation="4.91111"/>
<feComposite in2="hardAlpha" operator="arithmetic" k2="-1" k3="1"/>
<feColorMatrix type="matrix" values="0 0 0 0 0 0 0 0 0 0 0 0 0 0 0 0 0 0 0.6 0"/>
<feBlend mode="normal" in2="effect1_innerShadow_788_738" result="effect2_innerShadow_788_738"/>
</filter>
<linearGradient id="paint0_linear_788_738" x1="57.5" y1="5" x2="57.5" y2="110" gradientUnits="userSpaceOnUse">
<stop stop-color="white" stop-opacity="0.51"/>
<stop offset="1" stop-color="#289ADA" stop-opacity="0.54"/>
</linearGradient>
</defs>
</svg>
