<svg width="115" height="115" viewBox="0 0 115 115" fill="none" xmlns="http://www.w3.org/2000/svg">
<g filter="url(#filter0_ii_788_729)">
<rect x="5" y="5" width="105" height="105" rx="52.5" fill="url(#paint0_linear_788_729)"/>
<rect x="5" y="5" width="105" height="105" rx="52.5" fill="white" fill-opacity="0.9"/>
</g>
<rect x="2.5" y="2.5" width="110" height="110" rx="55" stroke="white" stroke-width="5"/>
<path d="M82.9737 76.9471C82.9737 75.7268 82.9887 74.5065 82.9925 73.2862C82.9962 71.9721 82.9962 70.6579 82.9925 69.3437C82.9925 68.956 82.9793 68.5684 82.9784 68.1807C82.9784 67.2758 82.9784 66.3718 82.9784 65.4669C82.9784 64.4916 82.9784 63.5163 82.9784 62.542C82.9784 61.3902 82.9634 60.2384 82.9634 59.0876C82.9634 58.0775 82.9803 57.0675 82.984 56.0566C82.984 55.0935 82.9718 54.1304 82.984 53.1673C83.0075 51.6916 82.4884 50.553 81.1066 49.7974C80.4655 49.4454 79.7737 49.4519 79.08 49.45C78.1864 49.45 77.2965 49.4632 76.3982 49.4566C76.0067 49.4566 75.8725 49.3083 75.8612 48.9159C75.8546 48.6691 75.8715 48.4222 75.8715 48.1744C75.8715 45.2331 75.869 42.2919 75.864 39.3507C75.864 37.9971 75.8697 36.6435 75.864 35.2908C75.8711 34.5529 75.6194 33.8358 75.1525 33.2642C74.4457 32.3959 73.5164 32.0082 72.4012 32.0082C62.7878 32.0126 53.1753 32.0101 43.5637 32.0007C42.8674 31.9869 42.1815 32.1712 41.5859 32.532C41.0847 32.8466 40.6818 33.2954 40.4228 33.8274C40.0858 34.4901 40.0351 35.1988 40.0351 35.9188C40.0351 38.1091 40.0351 40.2972 40.0351 42.4831C40.0398 44.5538 40.052 46.6246 40.0596 48.6953C40.0596 49.3008 39.9141 49.4623 39.3208 49.4641C38.5914 49.4641 37.8611 49.4266 37.1337 49.4641C36.4456 49.496 35.704 49.4585 35.0854 49.7026C33.7037 50.247 32.9997 51.3227 33.0025 52.8631C33.0156 61.8933 33.0181 70.9229 33.01 79.9519C33.01 80.2579 32.9799 80.5695 33.0241 80.869C33.0776 81.2247 33.1358 81.6002 33.2954 81.9147C33.944 83.1979 34.985 83.8071 36.4503 83.8033C43.6041 83.7836 50.7569 83.7939 57.9106 83.7939C65.2049 83.7939 72.4995 83.7911 79.7943 83.7855C80.1856 83.7866 80.573 83.708 80.933 83.5546C82.2884 82.9519 83.0431 81.6415 82.9981 80.1527C82.9652 79.0855 82.9727 78.0163 82.9737 76.9471ZM42.0186 35.4119C42.01 35.0736 42.122 34.7431 42.3345 34.4797C42.547 34.2163 42.8463 34.037 43.1788 33.9739C43.3866 33.9332 43.5979 33.9131 43.8096 33.9138C46.1682 33.9138 48.5275 33.9138 50.8874 33.9138H63.4123C66.291 33.9138 69.1696 33.9153 72.0483 33.9185C72.5026 33.9185 72.9625 33.9185 73.3624 34.2311C73.8046 34.5802 73.921 35.0374 73.9181 35.5734C73.9059 37.9041 73.9078 40.2349 73.9078 42.5657C73.9078 46.8042 73.9078 51.0421 73.9078 55.2793C73.9162 55.5142 73.8988 55.7494 73.8562 55.9805C73.8201 56.1386 73.7354 56.2814 73.614 56.3888C72.4115 57.3698 71.1931 58.3301 69.9944 59.3147C69.6602 59.5898 69.3505 59.6987 68.9346 59.5025C68.725 59.4231 68.5014 59.3877 68.2775 59.3983C67.0885 59.3889 65.8995 59.3889 64.7105 59.3983C63.2443 59.4086 62.4304 60.2703 62.4577 61.7394C62.4774 62.7278 62.4577 63.7172 62.4802 64.7056C62.4931 64.8864 62.4589 65.0674 62.3809 65.2309C62.303 65.3945 62.1838 65.535 62.0352 65.6387C60.9323 66.4995 59.8453 67.3809 58.7498 68.2558C58.656 68.329 58.5696 68.4069 58.4832 68.4867C58.1078 68.834 57.8581 68.8162 57.4704 68.497C56.5542 67.7461 55.6249 67.0045 54.6928 66.2695C54.1484 65.8396 53.588 65.4313 53.0407 65.0051C52.9388 64.927 52.8555 64.8273 52.7967 64.7132C52.7028 64.5132 52.7582 64.3658 52.9994 64.3377C53.1051 64.332 53.211 64.332 53.3167 64.3377C54.8468 64.3377 56.3759 64.348 57.9059 64.3452C58.7939 64.3452 59.2464 63.5942 58.8052 62.8142C58.7113 62.6462 58.4748 62.5129 58.2786 62.4603C58.0355 62.3955 57.7651 62.4246 57.507 62.4237C55.2541 62.4237 53.0116 62.3965 50.7644 62.4397C50.1819 62.4651 49.6124 62.2632 49.1761 61.8764C47.8 60.7369 46.3863 59.6424 44.9877 58.5291C44.1231 57.841 43.2614 57.1492 42.3941 56.4639C42.2715 56.3722 42.1732 56.2519 42.1077 56.1135C42.0423 55.9751 42.0117 55.8228 42.0186 55.6698C42.028 53.788 42.0327 51.906 42.0327 50.0236C42.0327 48.1772 42.0055 46.3317 42.0045 44.4853C42.0045 43.097 42.0299 41.7096 42.0317 40.3213C42.0374 38.6851 42.0271 37.0471 42.0186 35.4119ZM65.5666 61.3658C65.9073 61.3705 66.2481 61.332 66.5879 61.347C66.6544 61.3511 66.7193 61.3692 66.7783 61.4001C66.8374 61.431 66.8892 61.474 66.9305 61.5263C66.9681 61.5845 66.877 61.7769 66.7925 61.8492C66.3833 62.1993 65.9562 62.5269 65.5366 62.8658C65.3822 63.0095 65.2192 63.1437 65.0484 63.2676C64.9198 63.3464 64.7218 63.4347 64.612 63.3868C64.5021 63.3389 64.4533 63.1286 64.4242 62.9813C64.4126 62.8432 64.4177 62.7042 64.4392 62.5673C64.4345 61.347 64.4345 61.3508 65.5666 61.3658ZM81.0325 63.5248C81.0325 65.5017 81.0259 67.4785 81.025 69.4564C81.025 70.9852 81.025 72.5149 81.025 74.0456C81.025 76.2112 81.0343 78.3758 81.025 80.5414C81.025 81.2416 80.3679 81.8124 79.5709 81.8555C79.3241 81.8687 79.0762 81.8555 78.8294 81.8555H57.935H36.5075C35.4844 81.8555 34.9118 81.2416 34.9118 80.2109C34.9249 77.8229 34.9118 75.4349 34.9202 73.0459C34.9287 70.657 34.9352 68.2933 34.9362 65.9119C34.9362 63.9829 34.9259 62.0538 34.9259 60.1239C34.9259 58.407 34.9334 56.6892 34.9362 54.9714C34.9362 54.2777 34.924 53.5831 34.9362 52.8894C34.9474 51.9986 35.46 51.4326 36.3442 51.4082C37.4246 51.3791 38.5079 51.4082 39.5893 51.4147C39.8878 51.4147 40.0586 51.5752 40.0689 51.8662C40.0827 52.5721 40.0827 53.2777 40.0689 53.983C40.0633 54.289 39.8596 54.3791 39.578 54.2148C39.2391 54.0158 38.9059 53.8243 38.4863 53.9276C38.0095 54.044 37.7654 54.4242 37.8686 54.9095C37.9458 55.2696 38.1497 55.59 38.4431 55.8125C40.8512 57.7343 43.257 59.6571 45.6607 61.5807C47.2312 62.8339 48.811 64.0767 50.3823 65.3289C52.515 67.028 54.6459 68.7295 56.7748 70.4335C57.5624 71.0634 58.3237 71.084 59.114 70.4561C61.1754 68.8184 63.2333 67.1769 65.2878 65.5317C66.7325 64.3818 68.1865 63.245 69.6302 62.0951C70.7979 61.1658 71.9544 60.2178 73.1202 59.2922C74.3405 58.3169 75.5843 57.3651 76.7896 56.3691C77.2251 56.0096 77.7489 55.7299 78.0099 55.1685C78.1704 54.8203 78.1873 54.5115 77.9395 54.2167C77.6917 53.922 77.3406 53.8412 76.9792 53.9351C76.7558 53.9952 76.5521 54.1275 76.339 54.2261C76.0659 54.3528 75.8856 54.273 75.8753 53.9727C75.8509 53.2668 75.8446 52.5609 75.8565 51.855C75.8565 51.5546 76.0809 51.4269 76.3597 51.4204C76.9004 51.4063 77.441 51.3997 77.9817 51.3969C78.5224 51.3941 79.0415 51.3772 79.569 51.4072C80.5077 51.4588 81.0231 51.9873 81.0297 52.9204C81.0409 54.6391 81.0231 56.3569 81.0221 58.0757C81.0268 59.8996 81.0325 61.7084 81.0325 63.5201V63.5248Z" fill="#2B5EBD"/>
<path d="M57.9349 81.8556H36.5074C35.4842 81.8556 34.9116 81.2417 34.9116 80.211C34.9248 77.8229 34.9116 75.4349 34.9201 73.046C34.9285 70.657 34.9351 68.2934 34.936 65.9119C34.936 63.9829 34.9257 62.0539 34.9257 60.1239C34.9257 58.4071 34.9332 56.6893 34.936 54.9715C34.936 54.2778 34.9238 53.5831 34.936 52.8894C34.9473 51.9986 35.4598 51.4326 36.3441 51.4082C37.4245 51.3791 38.5077 51.4082 39.5891 51.4148C39.8876 51.4148 40.0585 51.5753 40.0688 51.8663C40.0826 52.5722 40.0826 53.2777 40.0688 53.983C40.0632 54.289 39.8595 54.3791 39.5779 54.2149C39.239 54.0159 38.9058 53.8244 38.4862 53.9276C38.0093 54.044 37.7652 54.4242 37.8685 54.9095C37.9457 55.2696 38.1495 55.59 38.443 55.8125C40.851 57.7343 43.2569 59.6571 45.6606 61.5808C47.231 62.8339 48.8108 64.0768 50.3822 65.329C52.5149 67.028 54.6457 68.7295 56.7747 70.4336C57.5622 71.0634 58.3235 71.0841 59.1139 70.4561C61.1753 68.8184 63.2332 67.1769 65.2877 65.5317C66.7323 64.3818 68.1863 63.2451 69.63 62.0952C70.7978 61.1659 71.9542 60.2178 73.1201 59.2923C74.3404 58.317 75.5842 57.3651 76.7894 56.3692C77.225 56.0096 77.7488 55.7299 78.0097 55.1686C78.1702 54.8203 78.1871 54.5115 77.9393 54.2168C77.6915 53.922 77.3405 53.8413 76.9791 53.9351C76.7556 53.9952 76.5519 54.1276 76.3389 54.2261C76.0657 54.3529 75.8855 54.2731 75.8752 53.9727C75.8507 53.2668 75.8445 52.5609 75.8564 51.855C75.8564 51.5546 76.0807 51.427 76.3595 51.4204C76.9002 51.4063 77.4409 51.3997 77.9816 51.3969C78.5223 51.3941 79.0414 51.3772 79.5689 51.4072C80.5076 51.4589 81.0229 51.9874 81.0295 52.9204C81.0408 54.6392 81.0229 56.357 81.022 58.0757C81.022 59.8874 81.0304 61.7 81.0304 63.5117C81.0304 65.4885 81.0239 67.4654 81.0229 69.4433C81.0229 70.9721 81.0229 72.5018 81.0229 74.0325C81.0229 76.1981 81.0323 78.3627 81.0229 80.5283C81.0229 81.2285 80.3658 81.7992 79.5689 81.8424C79.322 81.8556 79.0742 81.8424 78.8273 81.8424H57.9349V81.8556Z" fill="#2B5EBD"/>
<path d="M70.4195 40.4095C70.3922 39.3141 69.4808 38.4796 68.3891 38.4758C67.7188 38.4758 67.0486 38.4758 66.3784 38.4758V38.4908C65.7213 38.4908 65.0642 38.4833 64.4071 38.4908C63.8912 38.503 63.4003 38.7157 63.0385 39.0836C62.6766 39.4516 62.4723 39.946 62.4688 40.4621C62.4688 41.7556 62.4731 43.0494 62.4819 44.3436C62.4941 45.5639 63.3389 46.404 64.5564 46.4087C65.8011 46.4181 67.0477 46.4256 68.2924 46.4031C69.5793 46.3796 70.3481 45.6324 70.412 44.5304C70.4833 43.1665 70.4495 41.7828 70.4195 40.4095ZM68.4745 41.0929C68.4651 41.5397 68.4745 41.9875 68.4745 42.4343C68.4745 42.8454 68.4651 43.2575 68.4745 43.6696C68.4923 44.2685 68.2971 44.4844 67.6926 44.4806C67.0233 44.475 66.354 44.4543 65.6838 44.444C65.5193 44.4406 65.3549 44.4456 65.191 44.459C64.6352 44.506 64.44 44.3333 64.44 43.7663C64.44 43.3195 64.4485 42.8727 64.4485 42.4258C64.4485 42.0025 64.4391 41.581 64.44 41.1549C64.44 40.6067 64.5808 40.4471 65.1168 40.4339C65.6687 40.4208 66.2207 40.4414 66.7727 40.4433C67.1594 40.4433 67.5489 40.4199 67.9338 40.4433C68.3712 40.4809 68.4801 40.6395 68.4707 41.0929H68.4745Z" fill="#2B5EBD"/>
<path d="M70.4198 50.8524C70.4001 49.9438 69.697 49.1778 68.8081 49.0023C68.7399 48.9839 68.6701 48.972 68.5997 48.9666C67.1541 48.9666 65.7057 48.9234 64.2629 48.9938C63.1909 49.0464 62.4794 49.8781 62.4738 50.9491C62.4606 52.2783 62.4628 53.6078 62.4804 54.9376C62.4855 55.4501 62.6929 55.9398 63.0573 56.3002C63.4218 56.6606 63.9137 56.8624 64.4263 56.8619C64.8853 56.8666 65.3434 56.8619 65.8014 56.8619H66.4369H67.5859H68.4476C69.468 56.8619 70.4001 56.0011 70.4189 54.9845C70.447 53.6072 70.4473 52.2298 70.4198 50.8524ZM67.722 54.9395C67.2883 54.9254 66.8537 54.9395 66.4191 54.9395V54.9048H65.0796C64.5999 54.9048 64.4356 54.7471 64.4347 54.2777C64.4347 53.3615 64.4347 52.4451 64.4347 51.5283C64.4347 51.0655 64.6459 50.8712 65.1134 50.8712C66.0051 50.8756 66.8969 50.8756 67.7886 50.8712C68.2702 50.8712 68.4776 51.0768 68.4758 51.5536C68.4758 52.4347 68.4758 53.3162 68.4758 54.1979C68.4776 54.7921 68.3031 54.9583 67.7182 54.9395H67.722Z" fill="#2B5EBD"/>
<path d="M52.7908 53.8919C51.0386 53.8919 49.2864 53.8919 47.5341 53.8919C46.9277 53.8919 46.5739 53.585 46.5645 53.0283C46.5504 52.2614 46.832 51.9244 47.5125 51.9225C49.1825 51.9225 50.8533 51.9225 52.5233 51.9225C54.3224 51.9225 56.1222 51.9225 57.9226 51.9225C58.6792 51.9225 59.1429 52.5562 58.912 53.2799C58.7815 53.6845 58.5131 53.8675 58.0184 53.8675C56.2762 53.8675 54.5346 53.8675 52.7936 53.8675L52.7908 53.8919Z" fill="#2B5EBD"/>
<path d="M52.726 41.4505H57.9827C58.5947 41.4505 58.9627 41.8467 58.9477 42.4981C58.9336 43.082 58.5647 43.4161 57.9752 43.4133C56.5183 43.4077 55.0652 43.4133 53.6037 43.4133C52.1703 43.4133 50.7369 43.3974 49.3026 43.3936C48.7619 43.3936 48.2213 43.3936 47.6815 43.4105C46.7907 43.4349 46.388 42.9721 46.5551 42.0964C46.6198 41.7556 47.0488 41.4543 47.4647 41.4543H52.7213L52.726 41.4505Z" fill="#2B5EBD"/>
<defs>
<filter id="filter0_ii_788_729" x="0" y="-6" width="115" height="127" filterUnits="userSpaceOnUse" color-interpolation-filters="sRGB">
<feFlood flood-opacity="0" result="BackgroundImageFix"/>
<feBlend mode="normal" in="SourceGraphic" in2="BackgroundImageFix" result="shape"/>
<feColorMatrix in="SourceAlpha" type="matrix" values="0 0 0 0 0 0 0 0 0 0 0 0 0 0 0 0 0 0 127 0" result="hardAlpha"/>
<feOffset dy="6"/>
<feGaussianBlur stdDeviation="4.91111"/>
<feComposite in2="hardAlpha" operator="arithmetic" k2="-1" k3="1"/>
<feColorMatrix type="matrix" values="0 0 0 0 0 0 0 0 0 0 0 0 0 0 0 0 0 0 0.6 0"/>
<feBlend mode="normal" in2="shape" result="effect1_innerShadow_788_729"/>
<feColorMatrix in="SourceAlpha" type="matrix" values="0 0 0 0 0 0 0 0 0 0 0 0 0 0 0 0 0 0 127 0" result="hardAlpha"/>
<feOffset dy="-6"/>
<feGaussianBlur stdDeviation="4.91111"/>
<feComposite in2="hardAlpha" operator="arithmetic" k2="-1" k3="1"/>
<feColorMatrix type="matrix" values="0 0 0 0 0 0 0 0 0 0 0 0 0 0 0 0 0 0 0.6 0"/>
<feBlend mode="normal" in2="effect1_innerShadow_788_729" result="effect2_innerShadow_788_729"/>
</filter>
<linearGradient id="paint0_linear_788_729" x1="57.5" y1="5" x2="57.5" y2="110" gradientUnits="userSpaceOnUse">
<stop stop-color="white" stop-opacity="0.51"/>
<stop offset="1" stop-color="#289ADA" stop-opacity="0.54"/>
</linearGradient>
</defs>
</svg>
