<svg width="115" height="115" viewBox="0 0 115 115" fill="none" xmlns="http://www.w3.org/2000/svg">
<g filter="url(#filter0_ii_1059_49)">
<rect x="5" y="5" width="105" height="105" rx="52.5" fill="url(#paint0_linear_1059_49)"/>
<rect x="5" y="5" width="105" height="105" rx="52.5" fill="white" fill-opacity="0.9"/>
</g>
<rect x="2.5" y="2.5" width="110" height="110" rx="55" stroke="white" stroke-width="5"/>
<path d="M41.4657 52.443L40.1401 53.7686C39.408 54.5007 39.408 55.6877 40.1401 56.4199L51.4079 67.6877C52.14 68.4198 53.327 68.4198 54.0591 67.6877L55.3848 66.3621C56.1169 65.6299 56.1169 64.4429 55.3848 63.7108L44.117 52.443C43.3848 51.7109 42.1978 51.7109 41.4657 52.443Z" fill="#22355F"/>
<path d="M61.3436 32.5604L60.018 33.886C59.2859 34.6182 59.2859 35.8052 60.018 36.5373L71.2858 47.8051C72.0179 48.5372 73.2049 48.5372 73.9371 47.8051L75.2627 46.4795C75.9948 45.7474 75.9948 44.5604 75.2627 43.8282L63.9949 32.5604C63.2628 31.8283 62.0758 31.8283 61.3436 32.5604Z" fill="#22355F"/>
<path d="M55.0563 81.4375H32.8187C32.2285 81.4375 31.75 81.916 31.75 82.5062V83.1813C31.75 83.7715 32.2285 84.25 32.8187 84.25H55.0563C55.6465 84.25 56.125 83.7715 56.125 83.1813V82.5062C56.125 81.916 55.6465 81.4375 55.0563 81.4375Z" fill="#C30017"/>
<path d="M43 68.7532V72.0625C43 72.5782 43.4219 73 43.9375 73C44.4531 73 44.875 72.5782 44.875 72.0625V68.7532C44.875 68.2375 44.4531 67.8157 43.9375 67.8157C43.4219 67.8157 43 68.2375 43 68.7532Z" fill="#C30017"/>
<path d="M49.0843 69.9906L47.3968 72.8406C47.1343 73.2906 47.2844 73.8625 47.725 74.125C47.875 74.2094 48.0343 74.2562 48.2031 74.2562C48.5218 74.2562 48.8406 74.0875 49.0093 73.7968L50.6968 70.9469C50.9593 70.4969 50.8094 69.925 50.3687 69.6625C49.9187 69.4 49.3468 69.55 49.0843 69.9906Z" fill="#C30017"/>
<path d="M38.5374 73.7968C38.7155 74.0968 39.0249 74.2561 39.3436 74.2561C39.503 74.2561 39.6718 74.2186 39.8218 74.1249C40.2718 73.8624 40.4124 73.2905 40.1499 72.8405L38.4624 69.9905C38.1999 69.5405 37.628 69.3999 37.178 69.6624C36.728 69.9249 36.5874 70.4968 36.8499 70.9468L38.5374 73.7968Z" fill="#C30017"/>
<path d="M73.2812 61.7219L69.3063 65.7063C68.9406 66.0719 68.4625 66.25 67.975 66.25C67.4875 66.25 67.0187 66.0719 66.6531 65.7063C65.95 65.0032 65.9313 63.8876 66.5781 63.1469L64 60.4L63.3438 61.0657C62.9781 61.4313 62.3781 61.4313 62.0125 61.0657L59.3594 58.4125L56.05 61.7219L45.4375 51.1188L58.7031 37.8625L69.3063 48.4657L65.9875 51.7844L68.6406 54.4375C69.0062 54.8032 69.0062 55.3938 68.6406 55.7594L67.9844 56.425L70.7313 58.9938C71.4625 58.3469 72.5781 58.375 73.2812 59.0782C73.9844 59.7813 74.0125 60.9907 73.2812 61.7219Z" fill="#22355F"/>
<path d="M83.0407 70.5438L74.8 62.8188C74.7344 62.8938 74.6782 62.9782 74.6032 63.0532L70.6282 67.0282C70.5532 67.1032 70.4688 67.1595 70.3938 67.2251L78.1188 75.4657C79.45 76.9938 81.7938 77.0782 83.2282 75.6438C84.6625 74.2095 84.5782 71.8657 83.05 70.5345L83.0407 70.5438Z" fill="#22355F"/>
<path d="M53.3125 77.8C53.3125 77.2187 52.8438 76.75 52.2625 76.75H35.6125C35.0312 76.75 34.5625 77.2187 34.5625 77.8V79.5625H53.3125V77.8Z" fill="#C30017"/>
<defs>
<filter id="filter0_ii_1059_49" x="0" y="-6" width="115" height="127" filterUnits="userSpaceOnUse" color-interpolation-filters="sRGB">
<feFlood flood-opacity="0" result="BackgroundImageFix"/>
<feBlend mode="normal" in="SourceGraphic" in2="BackgroundImageFix" result="shape"/>
<feColorMatrix in="SourceAlpha" type="matrix" values="0 0 0 0 0 0 0 0 0 0 0 0 0 0 0 0 0 0 127 0" result="hardAlpha"/>
<feOffset dy="6"/>
<feGaussianBlur stdDeviation="4.91111"/>
<feComposite in2="hardAlpha" operator="arithmetic" k2="-1" k3="1"/>
<feColorMatrix type="matrix" values="0 0 0 0 0 0 0 0 0 0 0 0 0 0 0 0 0 0 0.6 0"/>
<feBlend mode="normal" in2="shape" result="effect1_innerShadow_1059_49"/>
<feColorMatrix in="SourceAlpha" type="matrix" values="0 0 0 0 0 0 0 0 0 0 0 0 0 0 0 0 0 0 127 0" result="hardAlpha"/>
<feOffset dy="-6"/>
<feGaussianBlur stdDeviation="4.91111"/>
<feComposite in2="hardAlpha" operator="arithmetic" k2="-1" k3="1"/>
<feColorMatrix type="matrix" values="0 0 0 0 0 0 0 0 0 0 0 0 0 0 0 0 0 0 0.6 0"/>
<feBlend mode="normal" in2="effect1_innerShadow_1059_49" result="effect2_innerShadow_1059_49"/>
</filter>
<linearGradient id="paint0_linear_1059_49" x1="57.5" y1="5" x2="57.5" y2="110" gradientUnits="userSpaceOnUse">
<stop stop-color="white" stop-opacity="0.51"/>
<stop offset="1" stop-color="#289ADA" stop-opacity="0.54"/>
</linearGradient>
</defs>
</svg>
