<svg width="115" height="115" viewBox="0 0 115 115" fill="none" xmlns="http://www.w3.org/2000/svg">
<g filter="url(#filter0_ii_788_688)">
<rect x="5" y="5" width="105" height="105" rx="52.5" fill="url(#paint0_linear_788_688)"/>
<rect x="5" y="5" width="105" height="105" rx="52.5" fill="white" fill-opacity="0.9"/>
</g>
<rect x="2.5" y="2.5" width="110" height="110" rx="55" stroke="white" stroke-width="5"/>
<g clip-path="url(#clip0_788_688)">
<path d="M33.3906 72.707C33.918 70.3535 35.6074 69.0156 37.5703 67.9219C38.2832 67.5215 39.1328 67.7656 39.5332 68.4492C39.9141 69.123 39.709 69.9238 39.0449 70.3926C38.3809 70.8613 37.668 71.2812 37.0723 71.8281C36.0078 72.8047 36.0176 73.7324 37.043 74.7578C38.2441 75.9687 39.7773 76.6328 41.3398 77.2187C44.4453 78.3808 47.6777 78.9766 50.9688 79.3379C54.4941 79.7285 58.0293 79.8262 61.5645 79.6211C66.291 79.3476 70.9688 78.7324 75.3926 76.916C76.4863 76.4668 77.5606 75.8613 78.5078 75.1484C80.1484 73.9277 80.1094 72.7363 78.5274 71.4473C78.1074 71.1055 77.6484 70.8125 77.1797 70.5293C76.3203 70.0019 76.0274 69.1816 76.4766 68.4297C76.916 67.6875 77.8047 67.5019 78.6445 68.0586C79.4844 68.6152 80.334 69.1816 81.0371 69.8848C83.1465 71.9746 83.1074 74.6601 81.0274 76.7793C79.8359 77.9902 78.3906 78.791 76.8477 79.4551C73.6445 80.832 70.2852 81.584 66.8477 82.0234C64.9141 82.2676 62.9609 82.375 61.0176 82.541C60.8809 82.5508 60.7344 82.5898 60.5977 82.6191C58.8691 82.6191 57.1406 82.6191 55.4121 82.6191C55.2754 82.5898 55.1387 82.5605 54.9922 82.541C52.4336 82.2773 49.8652 82.1016 47.3262 81.7305C44.1914 81.2715 41.125 80.4609 38.2734 79.0449C36.0176 77.9121 33.9863 76.5547 33.3906 73.8594C33.3906 73.4785 33.3906 73.0879 33.3906 72.707Z" fill="#2B5EBD"/>
<circle cx="58" cy="46" r="6" fill="white"/>
<path d="M71.4375 46.5449C71.418 48.2539 70.9297 49.8359 70.3535 51.4082C68.8399 55.5586 66.7598 59.4355 64.6016 63.2637C63.5274 65.168 62.3946 67.0527 61.2715 68.9277C59.6407 71.6328 56.3594 71.6426 54.7285 68.9473C51.8086 64.1328 48.9864 59.2598 46.711 54.0937C45.8809 52.2187 45.0996 50.3145 44.7578 48.293C44.3184 45.6953 44.8262 43.2246 45.9883 40.8906C48.5567 35.7051 54.0938 32.7559 59.7871 33.5176C65.4121 34.2695 69.9629 38.5176 71.125 44.123C71.2813 44.9141 71.3399 45.7344 71.4375 46.5449ZM58.0391 40.5C55.0703 40.4805 52.6387 42.873 52.6192 45.8223C52.5996 48.957 55.2559 51.4863 58.4297 51.2422C61.0664 51.0371 63.1953 48.8984 63.3711 46.2617C63.586 43.1367 61.1153 40.5195 58.0391 40.5Z" fill="#2B5EBD"/>
<path d="M51.2422 68.7617C48.8984 69.2305 46.584 69.5527 44.5527 71.0371C44.8652 71.2715 45.0996 71.4863 45.3633 71.6328C46.7207 72.3945 48.2051 72.7949 49.7188 73.0684C55.373 74.0938 61.0273 74.1133 66.6621 72.9707C67.8926 72.7266 69.0742 72.2383 70.2559 71.8184C70.6465 71.6816 70.9883 71.3789 71.457 71.0859C71.1055 70.832 70.8516 70.6172 70.5684 70.4609C69.0742 69.6406 67.4336 69.2793 65.7832 68.957C65.4609 68.8984 65.1289 68.8398 64.7285 68.7715C65.2266 67.9121 65.6953 67.1016 66.1934 66.3008C66.252 66.2129 66.4766 66.1543 66.6035 66.1836C68.3516 66.5156 70.0801 66.9355 71.6621 67.7754C72.2187 68.0684 72.7656 68.4297 73.2344 68.8594C74.6309 70.1582 74.6211 71.9356 73.2441 73.2539C72.209 74.2402 70.9199 74.7676 69.582 75.1875C67.1016 75.9785 64.5332 76.3496 61.9453 76.5352C58.6934 76.7695 55.4512 76.75 52.209 76.3594C49.5527 76.0371 46.9062 75.6074 44.4746 74.4063C43.7813 74.0645 43.1172 73.5957 42.5703 73.0586C41.3984 71.9063 41.4277 70.2559 42.541 69.0449C43.4883 68.0293 44.7188 67.4727 45.998 67.0527C47.0625 66.7109 48.1563 66.4766 49.2402 66.1836C49.5332 66.1055 49.7383 66.1543 49.9043 66.457C50.3242 67.2285 50.7734 67.9609 51.2422 68.7617Z" fill="#2B5EBD"/>
</g>
<defs>
<filter id="filter0_ii_788_688" x="0" y="-6" width="115" height="127" filterUnits="userSpaceOnUse" color-interpolation-filters="sRGB">
<feFlood flood-opacity="0" result="BackgroundImageFix"/>
<feBlend mode="normal" in="SourceGraphic" in2="BackgroundImageFix" result="shape"/>
<feColorMatrix in="SourceAlpha" type="matrix" values="0 0 0 0 0 0 0 0 0 0 0 0 0 0 0 0 0 0 127 0" result="hardAlpha"/>
<feOffset dy="6"/>
<feGaussianBlur stdDeviation="4.91111"/>
<feComposite in2="hardAlpha" operator="arithmetic" k2="-1" k3="1"/>
<feColorMatrix type="matrix" values="0 0 0 0 0 0 0 0 0 0 0 0 0 0 0 0 0 0 0.6 0"/>
<feBlend mode="normal" in2="shape" result="effect1_innerShadow_788_688"/>
<feColorMatrix in="SourceAlpha" type="matrix" values="0 0 0 0 0 0 0 0 0 0 0 0 0 0 0 0 0 0 127 0" result="hardAlpha"/>
<feOffset dy="-6"/>
<feGaussianBlur stdDeviation="4.91111"/>
<feComposite in2="hardAlpha" operator="arithmetic" k2="-1" k3="1"/>
<feColorMatrix type="matrix" values="0 0 0 0 0 0 0 0 0 0 0 0 0 0 0 0 0 0 0.6 0"/>
<feBlend mode="normal" in2="effect1_innerShadow_788_688" result="effect2_innerShadow_788_688"/>
</filter>
<linearGradient id="paint0_linear_788_688" x1="57.5" y1="5" x2="57.5" y2="110" gradientUnits="userSpaceOnUse">
<stop stop-color="white" stop-opacity="0.51"/>
<stop offset="1" stop-color="#289ADA" stop-opacity="0.54"/>
</linearGradient>
<clipPath id="clip0_788_688">
<rect width="50" height="50" fill="white" transform="translate(33 33)"/>
</clipPath>
</defs>
</svg>
