<svg width="115" height="115" viewBox="0 0 115 115" fill="none" xmlns="http://www.w3.org/2000/svg">
<g filter="url(#filter0_ii_1025_853)">
<rect x="5" y="5" width="105" height="105" rx="52.5" fill="url(#paint0_linear_1025_853)"/>
<rect x="5" y="5" width="105" height="105" rx="52.5" fill="white" fill-opacity="0.9"/>
</g>
<rect x="2.5" y="2.5" width="110" height="110" rx="55" stroke="white" stroke-width="5"/>
<path d="M58.5574 34.1533V72.197C58.3859 71.3612 57.5715 71.0806 56.7357 70.7533C47.742 67.2287 38.762 63.669 29.7664 60.1503C29.0183 59.858 28.7221 59.4898 28.7357 58.6617C28.789 55.5768 28.789 52.4926 28.7357 49.409C28.7221 48.5381 28.9793 48.0763 29.7898 47.7061C38.9471 43.5054 48.1044 39.2619 57.2617 35.0417C57.8112 34.7924 58.3489 34.5585 58.5574 34.1533Z" fill="#22355F"/>
<path d="M81.0149 61.7233C77.502 61.7233 74.6976 58.9189 74.6976 55.3765C74.6976 51.7751 77.5316 48.9707 81.133 49.0002C84.7344 49.0298 87.4798 51.8341 87.4503 55.4946C87.4207 58.978 84.5868 61.7233 81.0149 61.7233Z" fill="#C30017"/>
<path d="M93.236 63.5831C90.225 63.5831 87.8043 61.1329 87.8043 58.1219C87.8043 55.1109 90.2545 52.6312 93.236 52.6312C96.2766 52.6312 98.7858 55.1404 98.7562 58.1809C98.7267 61.192 96.2766 63.6126 93.236 63.5831Z" fill="#D2D2D2"/>
<path d="M68.5573 63.5831C65.5462 63.5536 63.1256 61.1034 63.1256 58.0924C63.1256 55.1109 65.6053 52.6312 68.5868 52.6312C71.6274 52.6312 74.0775 55.1109 74.048 58.2105C74.0185 61.2215 71.5978 63.6126 68.5573 63.5831Z" fill="#D2D2D2"/>
<path d="M74.3433 64.0259C72.0997 66.2694 70.4171 67.3912 69.8562 71.8782C66.9338 71.8782 63.9522 71.8782 60.8822 71.8782C60.587 68.6606 61.6407 66.8784 64.1204 64.9006C66.9838 62.598 70.9189 62.5794 74.3433 64.0259Z" fill="#D2D2D2"/>
<path d="M87.8043 64.0259C91.2286 62.5204 94.3282 62.5789 97.1622 64.7339C99.7894 66.7412 101 68.513 100.705 71.8782C97.664 71.8782 95.3319 71.8782 92.2914 71.8782C92.1142 68.4834 90.2545 66.5646 87.8043 64.0259Z" fill="#D2D2D2"/>
<path d="M69.8562 73C69.561 68.0111 73.7823 61.7824 81.251 61.7828C87.8043 61.7824 92.7637 67.5093 92.2914 73C85.0294 73 77.1181 73 69.8562 73Z" fill="#C30017"/>
<path d="M31.7916 79.8424C29.5335 79.8424 27.4312 79.8638 25.3309 79.8112C25.101 79.8112 24.6879 79.3631 24.686 79.1195C24.647 74.1278 24.647 69.1368 24.686 64.1464C24.686 63.9165 25.1088 63.5307 25.3698 63.4956C26.0713 63.4041 26.7921 63.4625 27.513 63.4625C28.947 63.4625 28.912 63.4625 29.1691 64.9257C29.9485 69.407 30.7727 73.8882 31.5734 78.3694C31.6475 78.802 31.702 79.2481 31.7916 79.8424Z" fill="#22355F"/>
<path d="M25.4631 58.5078C25.4787 59.1878 25.2293 59.408 24.5571 59.4099C21.9814 59.4197 19.6316 58.7592 17.5644 57.1927C15.1407 55.3573 15.1485 52.4932 17.5781 50.654C19.6784 49.068 22.0593 48.429 24.6721 48.4523C25.2566 48.4523 25.4748 48.6842 25.467 49.2629C25.4456 50.8215 25.467 52.3802 25.467 53.9389C25.4514 55.4586 25.428 56.9842 25.4631 58.5078Z" fill="#22355F"/>
<defs>
<filter id="filter0_ii_1025_853" x="0" y="-6" width="115" height="127" filterUnits="userSpaceOnUse" color-interpolation-filters="sRGB">
<feFlood flood-opacity="0" result="BackgroundImageFix"/>
<feBlend mode="normal" in="SourceGraphic" in2="BackgroundImageFix" result="shape"/>
<feColorMatrix in="SourceAlpha" type="matrix" values="0 0 0 0 0 0 0 0 0 0 0 0 0 0 0 0 0 0 127 0" result="hardAlpha"/>
<feOffset dy="6"/>
<feGaussianBlur stdDeviation="4.91111"/>
<feComposite in2="hardAlpha" operator="arithmetic" k2="-1" k3="1"/>
<feColorMatrix type="matrix" values="0 0 0 0 0 0 0 0 0 0 0 0 0 0 0 0 0 0 0.6 0"/>
<feBlend mode="normal" in2="shape" result="effect1_innerShadow_1025_853"/>
<feColorMatrix in="SourceAlpha" type="matrix" values="0 0 0 0 0 0 0 0 0 0 0 0 0 0 0 0 0 0 127 0" result="hardAlpha"/>
<feOffset dy="-6"/>
<feGaussianBlur stdDeviation="4.91111"/>
<feComposite in2="hardAlpha" operator="arithmetic" k2="-1" k3="1"/>
<feColorMatrix type="matrix" values="0 0 0 0 0 0 0 0 0 0 0 0 0 0 0 0 0 0 0.6 0"/>
<feBlend mode="normal" in2="effect1_innerShadow_1025_853" result="effect2_innerShadow_1025_853"/>
</filter>
<linearGradient id="paint0_linear_1025_853" x1="57.5" y1="5" x2="57.5" y2="110" gradientUnits="userSpaceOnUse">
<stop stop-color="white" stop-opacity="0.51"/>
<stop offset="1" stop-color="#289ADA" stop-opacity="0.54"/>
</linearGradient>
</defs>
</svg>
