<svg width="115" height="115" viewBox="0 0 115 115" fill="none" xmlns="http://www.w3.org/2000/svg">
<g filter="url(#filter0_ii_1027_1006)">
<rect x="5" y="5" width="105" height="105" rx="52.5" fill="url(#paint0_linear_1027_1006)"/>
<rect x="5" y="5" width="105" height="105" rx="52.5" fill="white" fill-opacity="0.9"/>
</g>
<rect x="2.5" y="2.5" width="110" height="110" rx="55" stroke="white" stroke-width="5"/>
<g clip-path="url(#clip0_1027_1006)">
<path d="M71.9775 56.6618C70.1762 35.1721 69.7638 30.5257 69.6932 29.8445C69.6932 29.8356 69.6919 29.828 69.6906 29.8203C69.6906 29.7975 69.6867 29.7733 69.6854 29.7466C69.4863 27.6763 67.6915 26 65.5985 26H49.9511C47.8582 26 46.0633 27.6763 45.8642 29.7466C45.8642 29.8445 43.5721 56.5627 43.5721 56.958C43.5721 59.3231 45.4659 61.0986 47.6578 61.0986H55.0337V62.9719H60.814V61.0986H67.8906C70.1839 61.0986 72.1767 59.2253 71.9775 56.6618ZM50.3571 33.7779C50.5665 33.5708 50.8543 33.4424 51.1742 33.4424H64.3896C65.0281 33.4424 65.5459 33.9546 65.5459 34.5862C65.5459 34.9027 65.4161 35.1874 65.2067 35.3945C64.9973 35.6017 64.7095 35.73 64.3896 35.73H51.1742C50.5357 35.73 50.0179 35.2179 50.0179 34.5862C50.0179 34.2698 50.1477 33.9851 50.3571 33.7779ZM49.3113 40.1782C49.5207 39.9711 49.8085 39.8427 50.1284 39.8427H65.4354C66.0739 39.8427 66.5917 40.3549 66.5917 40.9865C66.5917 41.303 66.4619 41.5876 66.2525 41.7948C66.0431 42.002 65.7553 42.1303 65.4354 42.1303H50.1284C49.4899 42.1303 48.9721 41.6181 48.9721 40.9865C48.9721 40.67 49.1019 40.3854 49.3113 40.1782ZM67.0234 48.1938C66.8139 48.401 66.5262 48.5293 66.2062 48.5293H49.3575C48.719 48.5293 48.2012 48.0171 48.2012 47.3855C48.2012 47.0703 48.331 46.7831 48.5404 46.5772C48.7498 46.3701 49.0376 46.2417 49.3575 46.2417H66.2062C66.8448 46.2417 67.3626 46.7539 67.3626 47.3855C67.3626 47.7007 67.2328 47.9879 67.0234 48.1938Z" fill="#22355F"/>
<path d="M44.3687 69.3798C40.5824 69.1828 37.6916 66.1263 37.6916 62.3797V55.8727H35.997C35.4985 55.8727 35 55.4787 35 54.8864C35 54.3946 35.4985 53.9015 35.997 53.9015H41.4792C41.9777 53.9015 42.4749 54.3946 42.4749 54.8864C42.4749 55.4787 41.9777 55.8727 41.4792 55.8727H39.6843V62.3797C39.6843 64.9431 41.5781 67.1125 44.2697 67.4087C44.2697 67.4087 44.0719 68.7787 44.3687 69.3798Z" fill="#C30017"/>
<path d="M80.15 54.5916C80.15 55.1825 79.6515 55.5778 79.153 55.5778H77.4596V61.5917C77.4596 64.9431 75.1663 67.9996 71.8772 68.8867C71.998 68.1178 71.5792 67.0134 71.5792 67.0134C73.0734 66.5203 74.2695 65.4362 74.8682 64.056C75.1663 63.2668 75.3654 62.4788 75.3654 61.6896V55.6756H73.6721C73.1736 55.6756 72.6751 55.2817 72.6751 54.6894C72.6751 54.0972 73.1736 53.7045 73.6721 53.7045H79.153C79.7517 53.7045 80.15 54.0984 80.15 54.5916Z" fill="#C30017"/>
<path d="M71.8773 68.8867C71.5792 70.366 70.2829 71.5492 68.5883 71.5492H60.5159V75.2958C60.5159 75.789 60.0174 76.2808 59.5189 76.2808H58.423L56.7284 76.3799H56.0308C55.5323 76.3799 55.0338 75.8868 55.0338 75.3937V71.6471H47.5589C46.0634 71.6471 44.8672 70.6621 44.3687 69.3798C44.0719 68.7786 44.2698 67.4086 44.2698 67.4086C44.6681 66.0284 45.9644 64.9431 47.5589 64.9431H68.4893C69.8846 64.9431 71.0807 65.8301 71.5792 67.0134C71.5792 67.0134 71.9981 68.1178 71.8773 68.8867Z" fill="#22355F"/>
<path d="M69.4862 82.5908C68.2734 82.6238 66.9937 83.774 66.9937 83.774L58.5218 80.7175V82.7878C57.4825 82.5425 56.6281 82.7878 56.6281 82.7878V80.7175L48.2564 83.774C47.0269 82.784 45.665 82.6899 45.665 82.6899L56.7283 78.7463V76.3799L58.4229 76.2808V78.6472L69.4862 82.5908Z" fill="#C30017"/>
<path d="M49.053 85.8443C49.053 87.5206 47.6577 89 45.8641 89C44.0706 89 42.6753 87.6198 42.6753 85.8443C42.6753 84.168 43.9704 82.7878 45.665 82.6899C45.665 82.6899 47.0269 82.784 48.2564 83.774C48.7549 84.3663 49.053 85.0564 49.053 85.8443Z" fill="#22355F"/>
<path d="M60.814 85.8443C60.814 87.5206 59.4187 89 57.6251 89C55.8316 89 54.4363 87.6198 54.4363 85.8443C54.4363 84.3663 55.3331 83.183 56.6281 82.7878C56.6281 82.7878 57.4825 82.5425 58.5219 82.7878C59.8183 83.183 60.814 84.4641 60.814 85.8443Z" fill="#22355F"/>
<path d="M72.6751 85.7464C72.6751 87.4215 71.2798 88.9008 69.4862 88.9008C67.7916 88.9008 66.2961 87.5206 66.2961 85.7464C66.2961 85.0563 66.4952 84.3662 66.9937 83.774C66.9937 83.774 68.2734 82.6238 69.4862 82.5908C71.2798 82.5908 72.6751 83.971 72.6751 85.7464Z" fill="#22355F"/>
</g>
<defs>
<filter id="filter0_ii_1027_1006" x="0" y="-6" width="115" height="127" filterUnits="userSpaceOnUse" color-interpolation-filters="sRGB">
<feFlood flood-opacity="0" result="BackgroundImageFix"/>
<feBlend mode="normal" in="SourceGraphic" in2="BackgroundImageFix" result="shape"/>
<feColorMatrix in="SourceAlpha" type="matrix" values="0 0 0 0 0 0 0 0 0 0 0 0 0 0 0 0 0 0 127 0" result="hardAlpha"/>
<feOffset dy="6"/>
<feGaussianBlur stdDeviation="4.91111"/>
<feComposite in2="hardAlpha" operator="arithmetic" k2="-1" k3="1"/>
<feColorMatrix type="matrix" values="0 0 0 0 0 0 0 0 0 0 0 0 0 0 0 0 0 0 0.6 0"/>
<feBlend mode="normal" in2="shape" result="effect1_innerShadow_1027_1006"/>
<feColorMatrix in="SourceAlpha" type="matrix" values="0 0 0 0 0 0 0 0 0 0 0 0 0 0 0 0 0 0 127 0" result="hardAlpha"/>
<feOffset dy="-6"/>
<feGaussianBlur stdDeviation="4.91111"/>
<feComposite in2="hardAlpha" operator="arithmetic" k2="-1" k3="1"/>
<feColorMatrix type="matrix" values="0 0 0 0 0 0 0 0 0 0 0 0 0 0 0 0 0 0 0.6 0"/>
<feBlend mode="normal" in2="effect1_innerShadow_1027_1006" result="effect2_innerShadow_1027_1006"/>
</filter>
<linearGradient id="paint0_linear_1027_1006" x1="57.5" y1="5" x2="57.5" y2="110" gradientUnits="userSpaceOnUse">
<stop stop-color="white" stop-opacity="0.51"/>
<stop offset="1" stop-color="#289ADA" stop-opacity="0.54"/>
</linearGradient>
<clipPath id="clip0_1027_1006">
<rect width="45.15" height="63" fill="white" transform="translate(35 26)"/>
</clipPath>
</defs>
</svg>
