<svg width="115" height="115" viewBox="0 0 115 115" fill="none" xmlns="http://www.w3.org/2000/svg">
<g filter="url(#filter0_ii_1067_2)">
<rect x="5" y="5" width="105" height="105" rx="52.5" fill="url(#paint0_linear_1067_2)"/>
<rect x="5" y="5" width="105" height="105" rx="52.5" fill="white" fill-opacity="0.9"/>
</g>
<rect x="2.5" y="2.5" width="110" height="110" rx="55" stroke="white" stroke-width="5"/>
<path fill-rule="evenodd" clip-rule="evenodd" d="M39.9401 51.4431H66.5074C66.937 51.4431 67.2852 51.7959 67.2852 52.2312C67.2852 52.6664 66.937 53.0193 66.5074 53.0193H39.9401C39.5105 53.0193 39.1623 52.6664 39.1623 52.2312C39.1623 51.7959 39.5105 51.4431 39.9401 51.4431ZM39.9401 57.7716H66.5074C66.937 57.7716 67.2852 58.1244 67.2852 58.5597C67.2852 58.9949 66.937 59.3478 66.5074 59.3478H39.9401C39.5105 59.3478 39.1623 58.9949 39.1623 58.5597C39.1623 58.1244 39.5105 57.7716 39.9401 57.7716ZM39.9401 64.0777H48.0393C48.4689 64.0777 48.8171 64.4306 48.8171 64.8658C48.8171 65.3011 48.4689 65.6539 48.0393 65.6539H39.9401C39.5105 65.6539 39.1623 65.3011 39.1623 64.8658C39.1623 64.4306 39.5105 64.0777 39.9401 64.0777ZM39.1623 71.1943C39.1623 70.7591 39.5105 70.4062 39.9401 70.4062H48.0393C48.4689 70.4062 48.8171 70.7591 48.8171 71.1943C48.8171 71.6296 48.4689 71.9824 48.0393 71.9824H39.9401C39.5105 71.9824 39.1623 71.6296 39.1623 71.1943ZM39.1623 77.5229C39.1623 77.0877 39.5105 76.7348 39.9401 76.7348H48.0393C48.4689 76.7348 48.8171 77.0877 48.8171 77.5229C48.8171 77.9582 48.4689 78.311 48.0393 78.311H39.9401C39.5105 78.311 39.1623 77.9582 39.1623 77.5229ZM52.5561 69.1528C52.5561 65.047 55.8686 61.6907 59.9206 61.6907C63.9727 61.6907 67.2851 65.047 67.2851 69.1528V72.7844C67.2851 76.8902 63.9726 80.2464 59.9206 80.2464C59.4911 80.2464 59.1428 79.8936 59.1428 79.4583V70.9686C59.1428 70.5334 59.4911 70.1805 59.9206 70.1805C60.3502 70.1805 60.6984 70.5334 60.6984 70.9686V78.4955C60.6984 78.5274 60.7108 78.5547 60.7347 78.5754C60.7586 78.5961 60.7872 78.6043 60.8182 78.5994C63.6049 78.1563 65.7295 75.6953 65.7295 72.7844V69.1528C65.7295 65.9171 63.114 63.267 59.9206 63.267C56.7272 63.267 54.1117 65.9171 54.1117 69.1528V72.7844C54.1117 74.3526 54.7252 75.8117 55.7742 76.8964C55.8044 76.9275 55.8476 76.9366 55.8874 76.9201C55.9273 76.9037 55.9519 76.8664 55.9519 76.8229V70.0889C55.9519 67.8756 57.7363 66.0677 59.9205 66.0677C62.1047 66.0677 63.8891 67.8757 63.8891 70.0889V74.144C63.8891 74.5792 63.5409 74.9321 63.1113 74.9321C62.6818 74.9321 62.3335 74.5792 62.3335 74.144V70.0889C62.3335 67.9452 59.7499 66.8095 58.2169 68.3627C57.7793 68.8062 57.5076 69.4173 57.5076 70.0889V78.614C57.5076 79.1932 56.8816 79.6354 56.2956 79.2679L56.2922 79.2659C55.1691 78.6184 54.2291 77.6807 53.5742 76.5565C52.9277 75.4465 52.556 74.1563 52.556 72.7844L52.5561 69.1528ZM47.326 47.7086V37.4338C47.326 37.3758 47.3726 37.3287 47.4297 37.3287H56.4575C56.4979 37.3287 56.5323 37.3504 56.5503 37.387C56.5682 37.4235 56.5645 37.4645 56.5402 37.4971L52.7918 42.5241C52.7724 42.5501 52.7453 42.5644 52.7133 42.5657C52.6811 42.567 52.6531 42.5549 52.6316 42.5306L51.2197 40.9244C50.9344 40.5996 50.4433 40.5707 50.1229 40.8598C49.8024 41.1489 49.7738 41.6464 50.0591 41.9711L52.1845 44.389C52.508 44.7571 53.0747 44.7202 53.3433 44.3912L53.3461 44.3876L59.1018 36.6686C59.3602 36.3217 59.8472 36.2528 60.1894 36.5146C60.5318 36.7764 60.5997 37.27 60.3413 37.6167L57.6947 41.166C57.6806 41.185 57.6738 41.2055 57.6738 41.2293V47.7085C57.6738 47.7663 57.6271 47.8135 57.5701 47.8135H47.4296C47.3725 47.8136 47.326 47.7665 47.326 47.7086ZM68.287 33H36.7129C35.2208 33 34 34.237 34 35.7489V80.2511C34 81.763 35.2208 83 36.7129 83H68.2871C69.7792 83 71 81.763 71 80.2511V35.7489C70.9999 34.2371 69.7791 33 68.287 33Z" fill="#22355F"/>
<path fill-rule="evenodd" clip-rule="evenodd" d="M81.898 46.7923H77.1031C77.047 46.7923 77.0011 46.7468 77.0011 46.6911L77.0013 43.6036C76.9991 42.7207 77.7253 41.9999 78.6148 42.002L80.3845 42C81.2741 42.002 81.9979 42.7205 82 43.6035L81.9999 46.6912C81.9999 46.7469 81.9542 46.7923 81.898 46.7923ZM81.999 48.4115V69.4857C81.999 69.5032 81.9951 69.5183 81.9868 69.5337L79.5892 73.9468C79.571 73.9804 79.538 74 79.4995 74C79.4609 74 79.428 73.9804 79.4098 73.9468L77.0122 69.5337C77.0038 69.5183 77 69.5032 77 69.4857V48.4115C77 48.3557 77.0458 48.3104 77.1019 48.3104H81.8969C81.9532 48.3104 81.999 48.3559 81.999 48.4115Z" fill="#C30017"/>
<defs>
<filter id="filter0_ii_1067_2" x="0" y="-6" width="115" height="127" filterUnits="userSpaceOnUse" color-interpolation-filters="sRGB">
<feFlood flood-opacity="0" result="BackgroundImageFix"/>
<feBlend mode="normal" in="SourceGraphic" in2="BackgroundImageFix" result="shape"/>
<feColorMatrix in="SourceAlpha" type="matrix" values="0 0 0 0 0 0 0 0 0 0 0 0 0 0 0 0 0 0 127 0" result="hardAlpha"/>
<feOffset dy="6"/>
<feGaussianBlur stdDeviation="4.91111"/>
<feComposite in2="hardAlpha" operator="arithmetic" k2="-1" k3="1"/>
<feColorMatrix type="matrix" values="0 0 0 0 0 0 0 0 0 0 0 0 0 0 0 0 0 0 0.6 0"/>
<feBlend mode="normal" in2="shape" result="effect1_innerShadow_1067_2"/>
<feColorMatrix in="SourceAlpha" type="matrix" values="0 0 0 0 0 0 0 0 0 0 0 0 0 0 0 0 0 0 127 0" result="hardAlpha"/>
<feOffset dy="-6"/>
<feGaussianBlur stdDeviation="4.91111"/>
<feComposite in2="hardAlpha" operator="arithmetic" k2="-1" k3="1"/>
<feColorMatrix type="matrix" values="0 0 0 0 0 0 0 0 0 0 0 0 0 0 0 0 0 0 0.6 0"/>
<feBlend mode="normal" in2="effect1_innerShadow_1067_2" result="effect2_innerShadow_1067_2"/>
</filter>
<linearGradient id="paint0_linear_1067_2" x1="57.5" y1="5" x2="57.5" y2="110" gradientUnits="userSpaceOnUse">
<stop stop-color="white" stop-opacity="0.51"/>
<stop offset="1" stop-color="#289ADA" stop-opacity="0.54"/>
</linearGradient>
</defs>
</svg>
