<svg width="115" height="115" viewBox="0 0 115 115" fill="none" xmlns="http://www.w3.org/2000/svg">
<g filter="url(#filter0_ii_1027_2555)">
<rect x="5" y="5" width="105" height="105" rx="52.5" fill="url(#paint0_linear_1027_2555)"/>
<rect x="5" y="5" width="105" height="105" rx="52.5" fill="white" fill-opacity="0.9"/>
</g>
<rect x="2.5" y="2.5" width="110" height="110" rx="55" stroke="white" stroke-width="5"/>
<rect x="56" y="55.8462" width="4.30769" height="30.1538" fill="#22355F"/>
<rect x="33.6154" y="30.6154" width="48.6154" height="24.6154" stroke="#22355F" stroke-width="1.23077"/>
<path d="M48.0348 34.8966V50H44.8416V37.9276H44.7531L41.2943 40.0958V37.2639L45.0333 34.8966H48.0348ZM55.4793 50.2065C54.437 50.2065 53.5078 50.0147 52.6917 49.6313C51.8805 49.2478 51.2364 48.7193 50.7595 48.0457C50.2826 47.3722 50.0344 46.6003 50.0147 45.7301H53.1121C53.1465 46.3151 53.3923 46.7896 53.8495 47.1534C54.3068 47.5172 54.85 47.6991 55.4793 47.6991C55.9808 47.6991 56.4233 47.5885 56.8068 47.3672C57.1952 47.1411 57.4975 46.8289 57.7139 46.4307C57.9351 46.0275 58.0457 45.5654 58.0457 45.0442C58.0457 44.5132 57.9326 44.0462 57.7065 43.643C57.4853 43.2399 57.178 42.9252 56.7847 42.6991C56.3913 42.4729 55.9415 42.3574 55.4351 42.3525C54.9926 42.3525 54.5624 42.4434 54.1445 42.6253C53.7315 42.8072 53.4095 43.0555 53.1784 43.3702L50.3392 42.8613L51.0545 34.8966H60.2876V37.5073H53.6873L53.2964 41.2905H53.3849C53.6504 40.9168 54.0511 40.6071 54.587 40.3613C55.1229 40.1155 55.7227 39.9926 56.3864 39.9926C57.296 39.9926 58.1072 40.2064 58.8201 40.6341C59.533 41.0619 60.0959 41.6494 60.5089 42.3967C60.9219 43.1391 61.1259 43.9945 61.121 44.9631C61.1259 45.9808 60.8899 46.8854 60.413 47.677C59.941 48.4636 59.2798 49.0831 58.4292 49.5354C57.5836 49.9828 56.6003 50.2065 55.4793 50.2065ZM67.6086 50.3319C66.3402 50.3269 65.2487 50.0147 64.3343 49.3953C63.4247 48.7758 62.7241 47.8785 62.2325 46.7035C61.7458 45.5285 61.5048 44.115 61.5098 42.4631C61.5098 40.8161 61.7531 39.4124 62.2399 38.2521C62.7315 37.0918 63.4321 36.2093 64.3416 35.6046C65.2561 34.995 66.3451 34.6902 67.6086 34.6902C68.8722 34.6902 69.9587 34.995 70.8682 35.6046C71.7827 36.2143 72.4858 37.0992 72.9774 38.2595C73.469 39.4149 73.7124 40.8161 73.7075 42.4631C73.7075 44.1199 73.4617 45.5359 72.97 46.7109C72.4833 47.8859 71.7852 48.7832 70.8756 49.4027C69.9661 50.0221 68.8771 50.3319 67.6086 50.3319ZM67.6086 47.6843C68.4739 47.6843 69.1647 47.2492 69.6809 46.379C70.1971 45.5088 70.4528 44.2035 70.4479 42.4631C70.4479 41.3175 70.3299 40.3637 70.0939 39.6017C69.8628 38.8396 69.5334 38.2669 69.1057 37.8834C68.6829 37.4999 68.1839 37.3082 67.6086 37.3082C66.7483 37.3082 66.0599 37.7384 65.5437 38.5987C65.0275 39.4591 64.7669 40.7472 64.762 42.4631C64.762 43.6234 64.8775 44.5919 65.1086 45.3687C65.3446 46.1406 65.6765 46.7207 66.1042 47.1091C66.5319 47.4926 67.0334 47.6843 67.6086 47.6843Z" fill="#C30017"/>
<defs>
<filter id="filter0_ii_1027_2555" x="0" y="-6" width="115" height="127" filterUnits="userSpaceOnUse" color-interpolation-filters="sRGB">
<feFlood flood-opacity="0" result="BackgroundImageFix"/>
<feBlend mode="normal" in="SourceGraphic" in2="BackgroundImageFix" result="shape"/>
<feColorMatrix in="SourceAlpha" type="matrix" values="0 0 0 0 0 0 0 0 0 0 0 0 0 0 0 0 0 0 127 0" result="hardAlpha"/>
<feOffset dy="6"/>
<feGaussianBlur stdDeviation="4.91111"/>
<feComposite in2="hardAlpha" operator="arithmetic" k2="-1" k3="1"/>
<feColorMatrix type="matrix" values="0 0 0 0 0 0 0 0 0 0 0 0 0 0 0 0 0 0 0.6 0"/>
<feBlend mode="normal" in2="shape" result="effect1_innerShadow_1027_2555"/>
<feColorMatrix in="SourceAlpha" type="matrix" values="0 0 0 0 0 0 0 0 0 0 0 0 0 0 0 0 0 0 127 0" result="hardAlpha"/>
<feOffset dy="-6"/>
<feGaussianBlur stdDeviation="4.91111"/>
<feComposite in2="hardAlpha" operator="arithmetic" k2="-1" k3="1"/>
<feColorMatrix type="matrix" values="0 0 0 0 0 0 0 0 0 0 0 0 0 0 0 0 0 0 0.6 0"/>
<feBlend mode="normal" in2="effect1_innerShadow_1027_2555" result="effect2_innerShadow_1027_2555"/>
</filter>
<linearGradient id="paint0_linear_1027_2555" x1="57.5" y1="5" x2="57.5" y2="110" gradientUnits="userSpaceOnUse">
<stop stop-color="white" stop-opacity="0.51"/>
<stop offset="1" stop-color="#289ADA" stop-opacity="0.54"/>
</linearGradient>
</defs>
</svg>
