<svg width="115" height="115" viewBox="0 0 115 115" fill="none" xmlns="http://www.w3.org/2000/svg">
<g filter="url(#filter0_ii_1025_902)">
<rect x="5" y="5" width="105" height="105" rx="52.5" fill="url(#paint0_linear_1025_902)"/>
<rect x="5" y="5" width="105" height="105" rx="52.5" fill="white" fill-opacity="0.9"/>
</g>
<rect x="2.5" y="2.5" width="110" height="110" rx="55" stroke="white" stroke-width="5"/>
<rect x="35" y="54" width="45" height="29" fill="#FEFEFE"/>
<g clip-path="url(#clip0_1025_902)">
<path d="M81 44.1403V50.3654C81 50.8568 80.6034 51.2563 80.1155 51.2563H35.2184C34.545 51.2563 34 50.7074 34 50.0291V44.5024C34 41.4502 36.3711 38.9498 39.3585 38.7774V41.5134C39.3585 44.7237 41.8295 47.4626 45.0138 47.5862C48.3636 47.7184 51.1342 45.0111 51.1342 41.6629V38.7659H62.7844V41.5163C62.7844 44.7294 65.2582 47.4684 68.4454 47.5891C71.7952 47.7184 74.5629 45.0111 74.5629 41.6657V38.7687H75.6671C78.6118 38.7687 81 41.1743 81 44.1431V44.1403Z" fill="#22355F"/>
<path d="M72 34.0484V42.9516C72 44.0838 70.4338 45 68.5 45C66.5662 45 65 44.0815 65 42.9516V34.0484C65 32.9162 66.5689 32 68.5 32C69.4669 32 70.3406 32.2296 70.9745 32.6002C71.6084 32.9708 72 33.4823 72 34.0484Z" fill="#22355F"/>
<path d="M49 34.0484V42.9516C49 44.0838 47.2094 45 45.0015 45C42.7937 45 41 44.0815 41 42.9516V34.0484C41 32.9162 42.7906 32 45.0015 32C46.107 32 47.1058 32.2296 47.8276 32.6002C48.5523 32.9708 49 33.4823 49 34.0484Z" fill="#22355F"/>
<path d="M78.6945 52.4491H36.3055C35.0329 52.4491 34 53.4895 34 54.7742V81.6778C34 82.9596 35.0329 84 36.3055 84H78.6945C79.9671 84 81 82.9596 81 81.6778V54.7742C81 53.4895 79.9671 52.4491 78.6945 52.4491ZM44.0665 79.8011C44.0665 80.4765 43.5216 81.0225 42.851 81.0225H37.638C36.9675 81.0225 36.4225 80.4765 36.4225 79.8011V75.5993C36.4225 74.9239 36.9675 74.3778 37.638 74.3778H42.851C43.5216 74.3778 44.0665 74.9239 44.0665 75.5993V79.8011ZM44.0665 70.3255C44.0665 71.0009 43.5216 71.5469 42.851 71.5469H37.638C36.9675 71.5469 36.4225 71.0009 36.4225 70.3255V66.1237C36.4225 65.4511 36.9675 64.9022 37.638 64.9022H42.851C43.5216 64.9022 44.0665 65.4511 44.0665 66.1237V70.3255ZM55.5683 79.8011C55.5683 80.4765 55.0262 81.0225 54.3556 81.0225H49.1398C48.4692 81.0225 47.9271 80.4765 47.9271 79.8011V75.5993C47.9271 74.9239 48.4692 74.3778 49.1398 74.3778H54.3556C55.0262 74.3778 55.5683 74.9239 55.5683 75.5993V79.8011ZM55.5683 70.3255C55.5683 71.0009 55.0262 71.5469 54.3556 71.5469H49.1398C48.4692 71.5469 47.9271 71.0009 47.9271 70.3255V66.1237C47.9271 65.4511 48.4692 64.9022 49.1398 64.9022H54.3556C55.0262 64.9022 55.5683 65.4511 55.5683 66.1237V70.3255ZM55.5683 60.8498C55.5683 61.5252 55.0262 62.0742 54.3556 62.0742H49.1398C48.4692 62.0742 47.9271 61.5252 47.9271 60.8498V56.6509C47.9271 55.9755 48.4692 55.4266 49.1398 55.4266H54.3556C55.0262 55.4266 55.5683 55.9755 55.5683 56.6509V60.8498ZM67.0729 79.8011C67.0729 80.4765 66.5308 81.0225 65.8602 81.0225H60.6444C59.9738 81.0225 59.4317 80.4765 59.4317 79.8011V75.5993C59.4317 74.9239 59.9738 74.3778 60.6444 74.3778H65.8602C66.5308 74.3778 67.0729 74.9239 67.0729 75.5993V79.8011ZM67.0729 70.3255C67.0729 71.0009 66.5308 71.5469 65.8602 71.5469H60.6444C59.9738 71.5469 59.4317 71.0009 59.4317 70.3255V66.1237C59.4317 65.4511 59.9738 64.9022 60.6444 64.9022H65.8602C66.5308 64.9022 67.0729 65.4511 67.0729 66.1237V70.3255ZM67.0729 60.8498C67.0729 61.5252 66.5308 62.0742 65.8602 62.0742H60.6444C59.9738 62.0742 59.4317 61.5252 59.4317 60.8498V56.6509C59.4317 55.9755 59.9738 55.4266 60.6444 55.4266H65.8602C66.5308 55.4266 67.0729 55.9755 67.0729 56.6509V60.8498ZM78.5775 70.3255C78.5775 71.0009 78.0325 71.5469 77.362 71.5469H72.149C71.4784 71.5469 70.9335 71.0009 70.9335 70.3255V66.1237C70.9335 65.4511 71.4784 64.9022 72.149 64.9022H77.362C78.0325 64.9022 78.5775 65.4511 78.5775 66.1237V70.3255ZM78.5775 60.8498C78.5775 61.5252 78.0325 62.0742 77.362 62.0742H72.149C71.4784 62.0742 70.9335 61.5252 70.9335 60.8498V56.6509C70.9335 55.9755 71.4784 55.4266 72.149 55.4266H77.362C78.0325 55.4266 78.5775 55.9755 78.5775 56.6509V60.8498Z" fill="#506086"/>
</g>
<defs>
<filter id="filter0_ii_1025_902" x="0" y="-6" width="115" height="127" filterUnits="userSpaceOnUse" color-interpolation-filters="sRGB">
<feFlood flood-opacity="0" result="BackgroundImageFix"/>
<feBlend mode="normal" in="SourceGraphic" in2="BackgroundImageFix" result="shape"/>
<feColorMatrix in="SourceAlpha" type="matrix" values="0 0 0 0 0 0 0 0 0 0 0 0 0 0 0 0 0 0 127 0" result="hardAlpha"/>
<feOffset dy="6"/>
<feGaussianBlur stdDeviation="4.91111"/>
<feComposite in2="hardAlpha" operator="arithmetic" k2="-1" k3="1"/>
<feColorMatrix type="matrix" values="0 0 0 0 0 0 0 0 0 0 0 0 0 0 0 0 0 0 0.6 0"/>
<feBlend mode="normal" in2="shape" result="effect1_innerShadow_1025_902"/>
<feColorMatrix in="SourceAlpha" type="matrix" values="0 0 0 0 0 0 0 0 0 0 0 0 0 0 0 0 0 0 127 0" result="hardAlpha"/>
<feOffset dy="-6"/>
<feGaussianBlur stdDeviation="4.91111"/>
<feComposite in2="hardAlpha" operator="arithmetic" k2="-1" k3="1"/>
<feColorMatrix type="matrix" values="0 0 0 0 0 0 0 0 0 0 0 0 0 0 0 0 0 0 0.6 0"/>
<feBlend mode="normal" in2="effect1_innerShadow_1025_902" result="effect2_innerShadow_1025_902"/>
</filter>
<linearGradient id="paint0_linear_1025_902" x1="57.5" y1="5" x2="57.5" y2="110" gradientUnits="userSpaceOnUse">
<stop stop-color="white" stop-opacity="0.51"/>
<stop offset="1" stop-color="#289ADA" stop-opacity="0.54"/>
</linearGradient>
<clipPath id="clip0_1025_902">
<rect width="47" height="52" fill="white" transform="translate(34 32)"/>
</clipPath>
</defs>
</svg>
