<svg width="115" height="115" viewBox="0 0 115 115" fill="none" xmlns="http://www.w3.org/2000/svg">
<g filter="url(#filter0_ii_788_619)">
<rect x="5" y="5" width="105" height="105" rx="52.5" fill="url(#paint0_linear_788_619)"/>
<rect x="5" y="5" width="105" height="105" rx="52.5" fill="white" fill-opacity="0.9"/>
</g>
<rect x="2.5" y="2.5" width="110" height="110" rx="55" stroke="white" stroke-width="5"/>
<path d="M33.7643 77.4127C31.5601 75.675 31.5601 75.675 32.6097 73.1442C33.5544 70.87 32.1899 68.8175 29.7291 68.8175C29.2976 68.8175 28.8661 68.8408 28.4346 68.8058C28.1897 68.7941 27.7815 68.7475 27.7465 68.6192C27.4433 67.5113 27.0351 66.3917 27.0001 65.2604C26.9885 64.8406 27.8515 64.3624 28.3646 63.9659C28.9944 63.4644 29.939 63.1612 30.2423 62.5198C31.0586 60.8753 30.5455 59.5342 29.0177 58.4262C28.8778 58.3213 28.7495 58.193 28.5979 58.123C27.6649 57.6798 27.6299 57.0384 28.0031 56.1404C29.0294 53.6446 29.0061 53.6213 31.5368 53.8429C34.0559 54.0645 35.5254 52.2102 34.744 49.8077C34.674 49.5978 34.6623 49.3762 34.5574 49.1896C34.0326 48.2566 34.4524 47.7551 35.2688 47.242C37.5663 45.8191 37.5313 45.7958 39.5839 47.5219C40.0154 47.8834 40.5752 48.3849 41.0533 48.3616C43.3975 48.2799 43.7707 47.9301 44.5054 45.6559C44.5987 45.376 44.657 45.0611 44.797 44.8045C44.9136 44.6063 45.1469 44.3497 45.3218 44.3613C46.4764 44.4197 47.7126 44.338 48.7389 44.7579C49.217 44.9561 49.3103 46.1574 49.5553 46.9154C49.8002 47.7085 49.8935 48.4082 50.8498 48.933C52.4242 49.7844 53.6138 49.6561 54.8034 48.4199C54.9083 48.3149 55.0249 48.2216 55.1532 48.1283C55.5731 47.8368 56.1329 47.8367 56.5527 48.14C56.646 48.2099 56.751 48.2799 56.8443 48.3499C59.0601 50.1109 59.0485 50.1109 57.9872 52.735C57.8006 53.1898 57.544 53.7613 57.6606 54.1694C58.2204 56.1287 59.1301 56.7235 61.241 56.7235C61.5792 56.7235 61.9408 56.6885 62.2673 56.7468C62.4889 56.7818 62.8271 56.9334 62.8621 57.0967C63.1653 58.2163 63.6318 59.3592 63.5618 60.4672C63.5268 60.992 62.3956 61.4235 61.7775 61.9133C61.2877 62.2982 60.5529 62.613 60.378 63.1145C59.6549 65.1321 60.0048 65.9718 61.8008 67.278C62.0107 67.4296 62.314 67.5346 62.4073 67.7445C62.5939 68.141 62.8621 68.6542 62.7571 69.0157C61.8591 72.0363 61.8358 72.013 58.6636 71.7214C58.1971 71.6748 57.5557 71.6981 57.2408 71.9663C55.9696 73.0976 54.815 74.3338 56.0396 76.2114C56.1562 76.3864 56.1562 76.6313 56.2612 76.8179C56.5994 77.436 56.3545 77.8092 55.8296 78.1941C53.3455 79.9901 53.3339 80.0251 51.0131 77.9725C50.3133 77.3544 49.6835 77.2261 48.7272 77.3427C47.1878 77.541 46.4764 78.264 46.2315 79.7102C46.1732 80.0367 46.0682 80.3516 45.9516 80.6665C45.7766 81.133 45.3335 81.4362 44.8436 81.4362H44.832C41.7531 81.4245 41.7298 81.4245 41.0767 78.4506C40.8784 77.5526 40.4702 77.0511 39.5955 76.5963C38.2544 75.8966 37.2397 75.9432 36.1901 77.0162C35.9569 77.2611 35.677 77.4477 35.3854 77.6459C34.9656 77.9258 34.4291 77.9142 34.0209 77.6226C33.9393 77.5526 33.846 77.4826 33.7643 77.4127ZM36.4817 62.8929C36.5167 67.6979 40.5402 71.6864 45.3335 71.6281C50.0917 71.5815 53.9986 67.6279 54.0103 62.858C54.022 58.0297 50.0684 54.0645 45.2402 54.0761C40.4236 54.0878 36.4467 58.088 36.4817 62.8929Z" fill="#2B5EBD"/>
<path d="M65.311 38.53C66.2323 37.8419 66.7222 37.0956 66.4306 35.9526C66.0574 34.4482 66.2557 33.935 68.2033 33.4569C68.4249 33.3986 68.6465 33.3286 68.868 33.2586C70.4891 32.7105 70.4308 33.072 70.874 33.9817C71.3755 35.0313 71.9703 35.4512 73.1365 35.8127C73.9062 36.0459 74.7226 36.1392 75.5273 36.0226C76.227 35.9293 76.5886 35.7077 77.125 35.1363C77.4633 34.7747 78.1047 34.2033 78.3263 34.3082C79.3526 34.8097 80.3905 35.4045 81.2069 36.1859C81.4985 36.4658 81.2302 37.4338 81.0553 38.0402C80.4139 40.2561 81.9066 42.8218 84.1808 43.0551C85.4753 43.1833 85.7902 43.8481 85.8952 44.9444C86.1168 47.3235 86.1518 47.4751 84.554 47.9533C83.2362 48.3498 82.758 49.2128 82.2449 50.3791C81.6851 51.6503 81.7434 52.6066 82.5014 53.6679C82.758 54.0177 83.0729 54.7292 82.9213 54.8924C82.1516 55.8021 81.3235 56.7351 80.3322 57.3415C79.9707 57.5631 79.0493 56.9683 78.4312 56.6418C76.8102 55.7671 74.0462 56.6884 73.3464 58.3795C72.5884 60.1988 72.5884 60.1988 70.6407 59.9656C70.2559 59.9189 69.8827 59.8023 69.4978 59.7673C68.7864 59.6974 68.4715 59.3475 68.4015 58.6127C68.3316 57.8197 68.3432 56.6185 67.8767 56.3152C66.4772 55.4289 65.276 53.5746 63.1535 54.7991C62.0688 55.4289 61.3574 54.8691 60.8676 53.7728C60.7743 53.5629 60.6577 53.3646 60.5177 53.1897C59.7713 52.2567 59.6897 51.452 60.6577 50.7056C61.719 49.8892 61.7656 48.9096 61.7656 47.4868C61.7656 47.2769 61.7306 47.0553 61.7306 46.8453C61.7656 45.9124 61.4624 45.2476 60.6344 44.7461C60.0629 44.3962 59.1416 43.8364 59.1882 43.4516C59.3165 42.332 59.7247 41.2007 60.2845 40.2094C60.4828 39.8596 61.3691 39.603 61.9872 39.8362C63.6666 40.6526 64.308 39.2764 65.311 38.53ZM67.3403 46.5188C67.3753 49.3061 69.7077 51.592 72.4834 51.557C75.2707 51.522 77.5332 49.2012 77.4982 46.3905C77.4633 43.5799 75.1774 41.3407 72.3551 41.3757C69.5561 41.4107 67.3053 43.7082 67.3403 46.5188Z" fill="#2B5EBD"/>
<defs>
<filter id="filter0_ii_788_619" x="0" y="-6" width="115" height="127" filterUnits="userSpaceOnUse" color-interpolation-filters="sRGB">
<feFlood flood-opacity="0" result="BackgroundImageFix"/>
<feBlend mode="normal" in="SourceGraphic" in2="BackgroundImageFix" result="shape"/>
<feColorMatrix in="SourceAlpha" type="matrix" values="0 0 0 0 0 0 0 0 0 0 0 0 0 0 0 0 0 0 127 0" result="hardAlpha"/>
<feOffset dy="6"/>
<feGaussianBlur stdDeviation="4.91111"/>
<feComposite in2="hardAlpha" operator="arithmetic" k2="-1" k3="1"/>
<feColorMatrix type="matrix" values="0 0 0 0 0 0 0 0 0 0 0 0 0 0 0 0 0 0 0.6 0"/>
<feBlend mode="normal" in2="shape" result="effect1_innerShadow_788_619"/>
<feColorMatrix in="SourceAlpha" type="matrix" values="0 0 0 0 0 0 0 0 0 0 0 0 0 0 0 0 0 0 127 0" result="hardAlpha"/>
<feOffset dy="-6"/>
<feGaussianBlur stdDeviation="4.91111"/>
<feComposite in2="hardAlpha" operator="arithmetic" k2="-1" k3="1"/>
<feColorMatrix type="matrix" values="0 0 0 0 0 0 0 0 0 0 0 0 0 0 0 0 0 0 0.6 0"/>
<feBlend mode="normal" in2="effect1_innerShadow_788_619" result="effect2_innerShadow_788_619"/>
</filter>
<linearGradient id="paint0_linear_788_619" x1="57.5" y1="5" x2="57.5" y2="110" gradientUnits="userSpaceOnUse">
<stop stop-color="white" stop-opacity="0.51"/>
<stop offset="1" stop-color="#289ADA" stop-opacity="0.54"/>
</linearGradient>
</defs>
</svg>
