<svg width="115" height="115" viewBox="0 0 115 115" fill="none" xmlns="http://www.w3.org/2000/svg">
<g filter="url(#filter0_ii_1025_695)">
<rect x="5" y="5" width="105" height="105" rx="52.5" fill="url(#paint0_linear_1025_695)"/>
<rect x="5" y="5" width="105" height="105" rx="52.5" fill="white" fill-opacity="0.9"/>
</g>
<rect x="2.5" y="2.5" width="110" height="110" rx="55" stroke="white" stroke-width="5"/>
<path d="M72.8348 79.5872H72.1223V76.5367C72.1223 70.1574 68.9883 64.0453 63.7447 60.1988C62.2584 59.1134 62.2472 56.9035 63.7503 55.8013C68.9884 51.9493 72.1224 45.8426 72.1224 39.4635V36.4129H72.8349C74.31 36.4129 75.5125 35.1995 75.5125 33.7075C75.5125 32.2156 74.3101 31.0021 72.8349 31.0021H43.1652C41.6901 31.0021 40.4877 32.2156 40.4877 33.7075C40.4877 35.1995 41.69 36.4129 43.1652 36.4129H43.8778V39.4634C43.8778 45.8426 47.0062 51.9492 52.2499 55.8012C53.7473 56.8978 53.7417 59.1077 52.2555 60.1987C47.0118 64.0453 43.8779 70.1573 43.8779 76.5366V79.5871H43.1653C41.6902 79.5871 40.4878 80.8005 40.4878 82.2924C40.4878 83.7844 41.6901 84.9978 43.1653 84.9978H72.835C74.3101 84.9978 75.5126 83.7844 75.5126 82.2924C75.5126 80.8005 74.31 79.5872 72.8348 79.5872ZM45.5476 76.5367C45.5476 70.6862 48.4256 65.0807 53.2462 61.546C55.6343 59.7925 55.651 56.2189 53.2406 54.4542C48.4256 50.9194 45.5476 45.3138 45.5476 39.4635V36.4129H70.4524V39.4634C70.4524 45.3138 67.5745 50.9194 62.7594 54.4541C60.3546 56.2187 60.3602 59.7868 62.7538 61.5459C67.5745 65.0807 70.4524 70.6862 70.4524 76.5366V79.5871H45.5476V76.5367Z" fill="#22355F"/>
<path d="M64.5263 69.8417C64.18 69.5566 63.8168 69.297 63.44 69.0634C60.6263 67.3192 58.8348 64.3226 58.8348 61.0123V54.9809C58.8348 53.9754 59.4546 53.048 60.4107 52.7366C61.5829 52.3548 62.6613 49.4914 63.5471 48.5899C63.8932 48.2377 64.2151 47.8677 64.5253 47.4896H51.4746C51.7847 47.8676 52.1066 48.2377 52.4526 48.5898C53.3384 49.4913 54.4167 52.3548 55.5889 52.7365C56.5449 53.0478 57.1648 53.9752 57.1648 54.9807V61.0122C57.1648 64.3226 55.3732 67.3191 52.5595 69.0633C52.1826 69.2969 51.8195 69.5564 51.4732 69.8415C49.1074 71.7885 47.7801 74.2174 47.7801 76.7839V77.3002L68.2195 77.3003V76.784C68.2195 74.2177 66.8922 71.7889 64.5263 69.8417Z" fill="#C30017"/>
<defs>
<filter id="filter0_ii_1025_695" x="0" y="-6" width="115" height="127" filterUnits="userSpaceOnUse" color-interpolation-filters="sRGB">
<feFlood flood-opacity="0" result="BackgroundImageFix"/>
<feBlend mode="normal" in="SourceGraphic" in2="BackgroundImageFix" result="shape"/>
<feColorMatrix in="SourceAlpha" type="matrix" values="0 0 0 0 0 0 0 0 0 0 0 0 0 0 0 0 0 0 127 0" result="hardAlpha"/>
<feOffset dy="6"/>
<feGaussianBlur stdDeviation="4.91111"/>
<feComposite in2="hardAlpha" operator="arithmetic" k2="-1" k3="1"/>
<feColorMatrix type="matrix" values="0 0 0 0 0 0 0 0 0 0 0 0 0 0 0 0 0 0 0.6 0"/>
<feBlend mode="normal" in2="shape" result="effect1_innerShadow_1025_695"/>
<feColorMatrix in="SourceAlpha" type="matrix" values="0 0 0 0 0 0 0 0 0 0 0 0 0 0 0 0 0 0 127 0" result="hardAlpha"/>
<feOffset dy="-6"/>
<feGaussianBlur stdDeviation="4.91111"/>
<feComposite in2="hardAlpha" operator="arithmetic" k2="-1" k3="1"/>
<feColorMatrix type="matrix" values="0 0 0 0 0 0 0 0 0 0 0 0 0 0 0 0 0 0 0.6 0"/>
<feBlend mode="normal" in2="effect1_innerShadow_1025_695" result="effect2_innerShadow_1025_695"/>
</filter>
<linearGradient id="paint0_linear_1025_695" x1="57.5" y1="5" x2="57.5" y2="110" gradientUnits="userSpaceOnUse">
<stop stop-color="white" stop-opacity="0.51"/>
<stop offset="1" stop-color="#289ADA" stop-opacity="0.54"/>
</linearGradient>
</defs>
</svg>
