<svg width="115" height="115" viewBox="0 0 115 115" fill="none" xmlns="http://www.w3.org/2000/svg">
<g filter="url(#filter0_ii_1027_2700)">
<rect x="5" y="5" width="105" height="105" rx="52.5" fill="url(#paint0_linear_1027_2700)"/>
<rect x="5" y="5" width="105" height="105" rx="52.5" fill="white" fill-opacity="0.9"/>
</g>
<rect x="2.5" y="2.5" width="110" height="110" rx="55" stroke="white" stroke-width="5"/>
<path d="M32.5413 80.5143C30.0839 78.577 30.0839 78.577 31.2541 75.7555C32.3073 73.2201 30.7861 70.9317 28.0426 70.9317C27.5615 70.9317 27.0805 70.9577 26.5994 70.9187C26.3263 70.9057 25.8713 70.8537 25.8323 70.7107C25.4942 69.4755 25.0391 68.2273 25.0001 66.9661C24.9871 66.498 25.9493 65.965 26.5214 65.5229C27.2235 64.9638 28.2767 64.6257 28.6147 63.9106C29.5249 62.0773 28.9528 60.5821 27.2495 59.3469C27.0935 59.2299 26.9504 59.0868 26.7814 59.0088C25.7412 58.5148 25.7022 57.7996 26.1183 56.7985C27.2625 54.016 27.2365 53.99 30.0579 54.2371C32.8664 54.4841 34.5047 52.4168 33.6335 49.7384C33.5555 49.5043 33.5425 49.2573 33.4255 49.0492C32.8404 48.0091 33.3085 47.45 34.2186 46.8779C36.78 45.2916 36.741 45.2656 39.0294 47.1899C39.5105 47.593 40.1346 48.1521 40.6676 48.1261C43.2811 48.0351 43.6971 47.645 44.5163 45.1096C44.6203 44.7976 44.6853 44.4465 44.8413 44.1605C44.9713 43.9394 45.2314 43.6534 45.4264 43.6664C46.7136 43.7314 48.0918 43.6404 49.236 44.1085C49.7691 44.3295 49.8731 45.6687 50.1462 46.5138C50.4192 47.398 50.5232 48.1781 51.5894 48.7632C53.3447 49.7123 54.6709 49.5693 55.9971 48.1911C56.1141 48.0741 56.2441 47.9701 56.3871 47.8661C56.8552 47.541 57.4793 47.541 57.9474 47.8791C58.0514 47.9571 58.1684 48.0351 58.2725 48.1131C60.7428 50.0764 60.7298 50.0764 59.5467 53.0019C59.3386 53.509 59.0526 54.1461 59.1826 54.6011C59.8067 56.7855 60.8209 57.4486 63.1742 57.4486C63.5513 57.4486 63.9544 57.4096 64.3184 57.4746C64.5655 57.5136 64.9425 57.6826 64.9815 57.8647C65.3196 59.1129 65.8397 60.3871 65.7617 61.6223C65.7226 62.2073 64.4614 62.6884 63.7723 63.2345C63.2262 63.6636 62.4071 64.0146 62.2121 64.5737C61.406 66.8231 61.796 67.7592 63.7983 69.2155C64.0324 69.3845 64.3704 69.5015 64.4744 69.7356C64.6825 70.1776 64.9815 70.7497 64.8645 71.1528C63.8633 74.5203 63.8373 74.4943 60.3008 74.1693C59.7807 74.1173 59.0656 74.1433 58.7145 74.4423C57.2973 75.7035 56.0101 77.0817 57.3753 79.1751C57.5053 79.3701 57.5053 79.6431 57.6223 79.8512C57.9994 80.5403 57.7264 80.9563 57.1413 81.3854C54.3718 83.3877 54.3588 83.4267 51.7714 81.1384C50.9913 80.4493 50.2892 80.3062 49.223 80.4363C47.5067 80.6573 46.7136 81.4634 46.4406 83.0757C46.3755 83.4397 46.2585 83.7908 46.1285 84.1419C45.9335 84.6619 45.4394 85 44.8933 85H44.8803C41.4478 84.987 41.4218 84.987 40.6936 81.6715C40.4726 80.6703 40.0175 80.1112 39.0424 79.6041C37.5471 78.824 36.416 78.876 35.2458 80.0722C34.9857 80.3452 34.6737 80.5533 34.3486 80.7743C33.8806 81.0864 33.2825 81.0734 32.8274 80.7483C32.7364 80.6703 32.6324 80.5923 32.5413 80.5143ZM35.5708 64.3267C35.6098 69.6835 40.0955 74.1303 45.4394 74.0652C50.7442 74.0132 55.0999 69.6055 55.1129 64.2877C55.1259 58.9048 50.7182 54.4841 45.3354 54.4971C39.9655 54.5101 35.5318 58.9698 35.5708 64.3267Z" fill="#22355F"/>
<path d="M67.7117 37.1653C68.7388 36.3981 69.2849 35.566 68.9599 34.2918C68.5438 32.6145 68.7648 32.0424 70.9362 31.5094C71.1832 31.4443 71.4303 31.3663 71.6773 31.2883C73.4846 30.6772 73.4196 31.0803 73.9137 32.0944C74.4727 33.2646 75.1358 33.7327 76.4361 34.1358C77.2942 34.3958 78.2043 34.4998 79.1015 34.3698C79.8816 34.2658 80.2847 34.0188 80.8828 33.3817C81.2598 32.9786 81.9749 32.3415 82.222 32.4585C83.3662 33.0176 84.5233 33.6807 85.4335 34.5518C85.7585 34.8639 85.4595 35.9431 85.2645 36.6192C84.5494 39.0896 86.2136 41.95 88.749 42.2101C90.1923 42.3531 90.5433 43.0942 90.6603 44.3164C90.9074 46.9688 90.9464 47.1379 89.1651 47.6709C87.6959 48.113 87.1628 49.0752 86.5907 50.3754C85.9666 51.7926 86.0316 52.8588 86.8767 54.042C87.1628 54.432 87.5138 55.2252 87.3448 55.4072C86.4867 56.4213 85.5635 57.4615 84.4583 58.1376C84.0553 58.3847 83.0281 57.7216 82.339 57.3575C80.5317 56.3823 77.4502 57.4095 76.6701 59.2948C75.825 61.3231 75.825 61.3231 73.6536 61.0631C73.2245 61.0111 72.8085 60.8811 72.3794 60.8421C71.5863 60.764 71.2352 60.374 71.1572 59.5548C71.0792 58.6707 71.0922 57.3315 70.5721 56.9934C69.0119 56.0053 67.6727 53.9379 65.3063 55.3032C64.0971 56.0053 63.304 55.3812 62.7579 54.159C62.6538 53.9249 62.5238 53.7039 62.3678 53.5089C61.5357 52.4687 61.4447 51.5716 62.5238 50.7394C63.707 49.8293 63.759 48.7371 63.759 47.1509C63.759 46.9168 63.72 46.6698 63.72 46.4357C63.759 45.3956 63.421 44.6545 62.4978 44.0954C61.8607 43.7053 60.8336 43.0812 60.8856 42.6521C61.0286 41.4039 61.4837 40.1427 62.1078 39.0376C62.3288 38.6475 63.317 38.3615 64.0061 38.6215C65.8784 39.5316 66.5935 37.9974 67.7117 37.1653ZM69.974 46.0717C70.013 49.1792 72.6134 51.7276 75.7079 51.6886C78.8154 51.6496 81.3378 49.0622 81.2988 45.9287C81.2598 42.7952 78.7114 40.2988 75.5649 40.3378C72.4444 40.3768 69.935 42.9382 69.974 46.0717Z" fill="#C30017"/>
<defs>
<filter id="filter0_ii_1027_2700" x="0" y="-6" width="115" height="127" filterUnits="userSpaceOnUse" color-interpolation-filters="sRGB">
<feFlood flood-opacity="0" result="BackgroundImageFix"/>
<feBlend mode="normal" in="SourceGraphic" in2="BackgroundImageFix" result="shape"/>
<feColorMatrix in="SourceAlpha" type="matrix" values="0 0 0 0 0 0 0 0 0 0 0 0 0 0 0 0 0 0 127 0" result="hardAlpha"/>
<feOffset dy="6"/>
<feGaussianBlur stdDeviation="4.91111"/>
<feComposite in2="hardAlpha" operator="arithmetic" k2="-1" k3="1"/>
<feColorMatrix type="matrix" values="0 0 0 0 0 0 0 0 0 0 0 0 0 0 0 0 0 0 0.6 0"/>
<feBlend mode="normal" in2="shape" result="effect1_innerShadow_1027_2700"/>
<feColorMatrix in="SourceAlpha" type="matrix" values="0 0 0 0 0 0 0 0 0 0 0 0 0 0 0 0 0 0 127 0" result="hardAlpha"/>
<feOffset dy="-6"/>
<feGaussianBlur stdDeviation="4.91111"/>
<feComposite in2="hardAlpha" operator="arithmetic" k2="-1" k3="1"/>
<feColorMatrix type="matrix" values="0 0 0 0 0 0 0 0 0 0 0 0 0 0 0 0 0 0 0.6 0"/>
<feBlend mode="normal" in2="effect1_innerShadow_1027_2700" result="effect2_innerShadow_1027_2700"/>
</filter>
<linearGradient id="paint0_linear_1027_2700" x1="57.5" y1="5" x2="57.5" y2="110" gradientUnits="userSpaceOnUse">
<stop stop-color="white" stop-opacity="0.51"/>
<stop offset="1" stop-color="#289ADA" stop-opacity="0.54"/>
</linearGradient>
</defs>
</svg>
