<svg width="59" height="49" viewBox="0 0 59 49" fill="none" xmlns="http://www.w3.org/2000/svg">
<path d="M6.76433 44.4127C4.56013 42.675 4.56013 42.675 5.60975 40.1442C6.5544 37.87 5.1899 35.8175 2.72913 35.8175C2.29762 35.8175 1.86611 35.8408 1.4346 35.8058C1.18968 35.7941 0.7815 35.7475 0.746512 35.6192C0.443289 34.5113 0.0351043 33.3917 0.00011699 32.2604C-0.0115454 31.8406 0.851474 31.3624 1.36462 30.9659C1.99439 30.4644 2.93905 30.1612 3.24227 29.5198C4.05864 27.8753 3.5455 26.5342 2.01772 25.4262C1.87777 25.3213 1.74948 25.193 1.59787 25.123C0.664876 24.6798 0.629888 24.0384 1.00309 23.1404C2.02938 20.6446 2.00606 20.6213 4.5368 20.8429C7.05589 21.0645 8.52535 19.2102 7.74397 16.8077C7.674 16.5978 7.66233 16.3762 7.55737 16.1896C7.03256 15.2566 7.45241 14.7551 8.26878 14.242C10.5663 12.8191 10.5313 12.7958 12.5839 14.5219C13.0154 14.8834 13.5752 15.3849 14.0533 15.3616C16.3975 15.2799 16.7707 14.9301 17.5054 12.6559C17.5987 12.376 17.657 12.0611 17.797 11.8045C17.9136 11.6063 18.1469 11.3497 18.3218 11.3613C19.4764 11.4197 20.7126 11.338 21.7389 11.7579C22.217 11.9561 22.3103 13.1574 22.5553 13.9154C22.8002 14.7085 22.8935 15.4082 23.8498 15.933C25.4242 16.7844 26.6138 16.6561 27.8034 15.4199C27.9083 15.3149 28.0249 15.2216 28.1532 15.1283C28.5731 14.8368 29.1329 14.8367 29.5527 15.14C29.646 15.2099 29.751 15.2799 29.8443 15.3499C32.0601 17.1109 32.0485 17.1109 30.9872 19.735C30.8006 20.1898 30.544 20.7613 30.6606 21.1694C31.2204 23.1287 32.1301 23.7235 34.241 23.7235C34.5792 23.7235 34.9408 23.6885 35.2673 23.7468C35.4889 23.7818 35.8271 23.9334 35.8621 24.0967C36.1653 25.2163 36.6318 26.3592 36.5618 27.4672C36.5268 27.992 35.3956 28.4235 34.7775 28.9133C34.2877 29.2982 33.5529 29.613 33.378 30.1145C32.6549 32.1321 33.0048 32.9718 34.8008 34.278C35.0107 34.4296 35.314 34.5346 35.4073 34.7445C35.5939 35.141 35.8621 35.6542 35.7571 36.0157C34.8591 39.0363 34.8358 39.013 31.6636 38.7214C31.1971 38.6748 30.5557 38.6981 30.2408 38.9663C28.9696 40.0976 27.815 41.3338 29.0396 43.2114C29.1562 43.3864 29.1562 43.6313 29.2612 43.8179C29.5994 44.436 29.3545 44.8092 28.8296 45.1941C26.3455 46.9901 26.3339 47.0251 24.0131 44.9725C23.3133 44.3544 22.6835 44.2261 21.7272 44.3427C20.1878 44.541 19.4764 45.264 19.2315 46.7102C19.1732 47.0367 19.0682 47.3516 18.9516 47.6665C18.7766 48.133 18.3335 48.4362 17.8436 48.4362H17.832C14.7531 48.4245 14.7298 48.4245 14.0767 45.4506C13.8784 44.5526 13.4702 44.0511 12.5955 43.5963C11.2544 42.8966 10.2397 42.9432 9.19011 44.0162C8.95686 44.2611 8.67696 44.4477 8.3854 44.6459C7.96556 44.9258 7.42909 44.9142 7.0209 44.6226C6.93926 44.5526 6.84596 44.4826 6.76433 44.4127ZM9.48167 29.8929C9.51666 34.6979 13.5402 38.6864 18.3335 38.6281C23.0917 38.5815 26.9986 34.6279 27.0103 29.858C27.022 25.0297 23.0684 21.0645 18.2402 21.0761C13.4236 21.0878 9.44669 25.088 9.48167 29.8929Z" fill="#2B5EBD"/>
<path d="M38.311 5.53003C39.2323 4.84195 39.7222 4.09555 39.4306 2.95264C39.0574 1.44818 39.2557 0.935035 41.2033 0.456875C41.4249 0.398563 41.6465 0.328588 41.868 0.258613C43.4891 -0.289521 43.4308 0.0720147 43.874 0.981685C44.3755 2.0313 44.9703 2.45115 46.1365 2.81269C46.9062 3.04593 47.7226 3.13923 48.5273 3.02261C49.227 2.92931 49.5886 2.70772 50.125 2.13627C50.4633 1.77473 51.1047 1.20327 51.3263 1.30823C52.3526 1.80972 53.3905 2.4045 54.2069 3.18588C54.4985 3.46578 54.2302 4.43376 54.0553 5.04021C53.4139 7.25607 54.9066 9.82181 57.1808 10.0551C58.4753 10.1833 58.7902 10.8481 58.8952 11.9444C59.1168 14.3235 59.1518 14.4751 57.554 14.9533C56.2362 15.3498 55.758 16.2128 55.2449 17.3791C54.6851 18.6503 54.7434 19.6066 55.5014 20.6679C55.758 21.0177 56.0729 21.7292 55.9213 21.8924C55.1516 22.8021 54.3235 23.7351 53.3322 24.3415C52.9707 24.5631 52.0493 23.9683 51.4312 23.6418C49.8102 22.7671 47.0462 23.6884 46.3464 25.3795C45.5884 27.1988 45.5884 27.1988 43.6407 26.9656C43.2559 26.9189 42.8827 26.8023 42.4978 26.7673C41.7864 26.6974 41.4715 26.3475 41.4015 25.6127C41.3316 24.8197 41.3432 23.6185 40.8767 23.3152C39.4772 22.4289 38.276 20.5746 36.1535 21.7991C35.0688 22.4289 34.3574 21.8691 33.8676 20.7728C33.7743 20.5629 33.6577 20.3646 33.5177 20.1897C32.7713 19.2567 32.6897 18.452 33.6577 17.7056C34.719 16.8892 34.7656 15.9096 34.7656 14.4868C34.7656 14.2769 34.7306 14.0553 34.7306 13.8453C34.7656 12.9124 34.4624 12.2476 33.6344 11.7461C33.0629 11.3962 32.1416 10.8364 32.1882 10.4516C32.3165 9.33199 32.7247 8.20073 33.2845 7.20942C33.4828 6.85955 34.3691 6.60298 34.9872 6.83623C36.6666 7.6526 37.308 6.27643 38.311 5.53003ZM40.3403 13.5188C40.3753 16.3061 42.7077 18.592 45.4834 18.557C48.2707 18.522 50.5332 16.2012 50.4982 13.3905C50.4633 10.5799 48.1774 8.34068 45.3551 8.37567C42.5561 8.41066 40.3053 10.7082 40.3403 13.5188Z" fill="#2B5EBD"/>
</svg>
