<svg width="42" height="42" viewBox="0 0 42 42" fill="none" xmlns="http://www.w3.org/2000/svg">
<rect width="42" height="42" rx="21" fill="#C30017"/>
<g clip-path="url(#clip0_229_19)">
<path d="M31.001 14.966C30.5149 15.6907 29.9017 16.3256 29.1896 16.8413C29.0487 16.9454 29.0038 17.0486 29.0083 17.224C29.0575 19.0897 28.6427 20.8605 27.8196 22.5387C26.8343 24.5452 25.4027 26.1694 23.4612 27.3464C22.0818 28.1816 20.5832 28.6786 18.9782 28.8887C17.8539 29.0396 16.7136 29.0371 15.5899 28.8815C13.9709 28.6594 12.4192 28.1007 11.0394 27.2428C11.0247 27.2291 11.0113 27.2141 10.9995 27.1979C13.2213 27.3965 15.2175 26.8639 17.0402 25.5236C16.7294 25.4995 16.4712 25.4821 16.2205 25.4204C14.8066 25.0715 13.8267 24.2324 13.2686 22.9185C13.1834 22.718 13.1981 22.7079 13.4238 22.7387C13.9116 22.8025 14.407 22.7816 14.8874 22.677C14.9215 22.6666 14.9545 22.6529 14.9859 22.6361C12.6257 22.0611 11.6705 19.9997 11.7739 18.6444C12.0454 18.7882 12.3326 18.9014 12.6301 18.9818C12.9257 19.0584 13.2252 19.1288 13.578 19.11C12.6912 18.4786 12.1168 17.6751 11.8867 16.6505C11.6567 15.6258 11.8193 14.6744 12.3331 13.7635C12.4094 13.7803 12.4355 13.8372 12.4725 13.8796C14.1967 15.8637 16.3579 17.1421 18.9561 17.7147C19.531 17.8419 20.1172 17.9075 20.7044 17.9557C20.8522 17.9677 20.8414 17.9166 20.8236 17.8048C20.5901 16.2991 21.0054 15.0036 22.1828 13.9914C23.1361 13.1721 24.2657 12.866 25.5239 13.0535C26.3795 13.1767 27.1709 13.5692 27.7782 14.1717C27.8091 14.2073 27.8502 14.2331 27.8961 14.2458C27.9421 14.2586 27.9908 14.2578 28.0363 14.2435C28.8293 14.0731 29.5931 13.7917 30.3039 13.4078C30.3532 13.3803 30.4069 13.3572 30.498 13.3114C30.1808 14.2507 29.6029 14.9419 28.8043 15.4803C29.0551 15.4884 29.297 15.4321 29.5344 15.3771C29.7719 15.3222 30.0162 15.2576 30.2527 15.1843C30.4891 15.1111 30.7335 15.019 30.9739 14.9356C30.9822 14.9464 30.9912 14.9565 31.001 14.966Z" fill="white"/>
</g>
<defs>
<clipPath id="clip0_229_19">
<rect width="20" height="16" fill="white" transform="translate(11 13)"/>
</clipPath>
</defs>
</svg>
